<?xml version="1.0" encoding="UTF-8" standalone="no"?>
<!DOCTYPE svg PUBLIC "-//W3C//DTD SVG 1.1//EN"
 "http://www.w3.org/Graphics/SVG/1.1/DTD/svg11.dtd">
<!-- Generated by graphviz version 2.43.0 (0)
 -->
<!-- Title: reg_write Pages: 1 -->
<svg width="301pt" height="236pt"
 viewBox="0.00 0.00 301.00 235.71" xmlns="http://www.w3.org/2000/svg" xmlns:xlink="http://www.w3.org/1999/xlink">

<svg id="main" version="1.1" xmlns="http://www.w3.org/2000/svg" xmlns:xlink="http://www.w3.org/1999/xlink" xml:space="preserve" onload="init(evt)">
<style type="text/css"><![CDATA[
.node, .edge {opacity: 0.7;}
.node.selected, .edge.selected {opacity: 1;}
.edge:hover path { stroke: red; }
.edge:hover polygon { stroke: red; fill: red; }
]]></style>
<script type="application/ecmascript" xlink:href="svg.min.js"/>
<svg id="graph" class="graph">
<g id="graph0" class="graph" transform="scale(1 1) rotate(0) translate(4 231.71)">
<title>reg_write</title>
<!-- Node1 -->
<g id="Node000001" class="node">
<title>Node1</title>
<g id="a_Node000001"><a xlink:title="Write a 32&#45;bit value to a hardware register.">
<polygon fill="#999999" stroke="#666666" points="293,-116.71 231,-116.71 231,-97.71 293,-97.71 293,-116.71"/>
<text text-anchor="middle" x="262" y="-104.71" font-family="Helvetica,sans-Serif" font-size="10.00">reg_write</text>
</a>
</g>
</g>
<!-- Node2 -->
<g id="Node000002" class="node">
<title>Node2</title>
<g id="a_Node000002"><a xlink:href="group__core__api.html#ga14b33365797a7a60d0f4b213de42564e" target="_top" xlink:title="Set the output drive strength for a GPIO pin.">
<polygon fill="white" stroke="#666666" points="195,-227.71 113,-227.71 113,-208.71 195,-208.71 195,-227.71"/>
<text text-anchor="middle" x="154" y="-215.71" font-family="Helvetica,sans-Serif" font-size="10.00">pin_set_drive</text>
</a>
</g>
</g>
<!-- Node1&#45;&gt;Node2 -->
<g id="edge1_Node000001_Node000002" class="edge">
<title>Node1&#45;&gt;Node2</title>
<g id="a_edge1_Node000001_Node000002"><a xlink:title=" ">
<path fill="none" stroke="#63b8ff" d="M251.65,-125.92C240.57,-146.48 220.36,-179.35 195,-200.21 191,-203.5 186.3,-206.31 181.56,-208.66"/>
<polygon fill="#63b8ff" stroke="#63b8ff" points="254.82,-127.41 256.34,-116.92 248.61,-124.17 254.82,-127.41"/>
</a>
</g>
</g>
<!-- Node3 -->
<g id="Node000003" class="node">
<title>Node3</title>
<g id="a_Node000003"><a xlink:href="group__core__api.html#ga518d1f257c42eb5a1819fcb65ccce21a" target="_top" xlink:title="Set the alternate function (FUNCSEL) for a GPIO pin.">
<polygon fill="white" stroke="#666666" points="176,-190.71 132,-190.71 132,-171.71 176,-171.71 176,-190.71"/>
<text text-anchor="middle" x="154" y="-178.71" font-family="Helvetica,sans-Serif" font-size="10.00">pinalt</text>
</a>
</g>
</g>
<!-- Node1&#45;&gt;Node3 -->
<g id="edge2_Node000001_Node000003" class="edge">
<title>Node1&#45;&gt;Node3</title>
<g id="a_edge2_Node000001_Node000003"><a xlink:title=" ">
<path fill="none" stroke="#63b8ff" d="M243.88,-124.08C231.14,-136.03 212.93,-151.89 195,-163.21 189.21,-166.87 182.54,-170.18 176.33,-172.93"/>
<polygon fill="#63b8ff" stroke="#63b8ff" points="246.6,-126.33 251.4,-116.88 241.76,-121.27 246.6,-126.33"/>
</a>
</g>
</g>
<!-- Node4 -->
<g id="Node000004" class="node">
<title>Node4</title>
<g id="a_Node000004"><a xlink:href="group__core__api.html#gada367c7b74bcd93238d109084d86fcf0" target="_top" xlink:title="Close a GPIO pin and reset it to a safe state.">
<polygon fill="white" stroke="#666666" points="182.5,-153.71 125.5,-153.71 125.5,-134.71 182.5,-134.71 182.5,-153.71"/>
<text text-anchor="middle" x="154" y="-141.71" font-family="Helvetica,sans-Serif" font-size="10.00">pinclose</text>
</a>
</g>
</g>
<!-- Node1&#45;&gt;Node4 -->
<g id="edge3_Node000001_Node000004" class="edge">
<title>Node1&#45;&gt;Node4</title>
<g id="a_edge3_Node000001_Node000004"><a xlink:title=" ">
<path fill="none" stroke="#63b8ff" d="M224.11,-120.09C210.46,-124.85 195.25,-130.16 182.57,-134.58"/>
<polygon fill="#63b8ff" stroke="#63b8ff" points="225.41,-123.34 233.7,-116.74 223.11,-116.73 225.41,-123.34"/>
</a>
</g>
</g>
<!-- Node6 -->
<g id="Node000006" class="node">
<title>Node6</title>
<g id="a_Node000006"><a xlink:href="group__core__api.html#ga5d5e6f66c606a30568f2f5e83653fdb6" target="_top" xlink:title="Open a GPIO pin for use in the specified direction.">
<polygon fill="white" stroke="#666666" points="182,-116.71 126,-116.71 126,-97.71 182,-97.71 182,-116.71"/>
<text text-anchor="middle" x="154" y="-104.71" font-family="Helvetica,sans-Serif" font-size="10.00">pinopen</text>
</a>
</g>
</g>
<!-- Node1&#45;&gt;Node6 -->
<g id="edge5_Node000001_Node000006" class="edge">
<title>Node1&#45;&gt;Node6</title>
<g id="a_edge5_Node000001_Node000006"><a xlink:title=" ">
<path fill="none" stroke="#63b8ff" d="M220.87,-107.21C207.98,-107.21 194.01,-107.21 182.27,-107.21"/>
<polygon fill="#63b8ff" stroke="#63b8ff" points="220.91,-110.71 230.91,-107.21 220.91,-103.71 220.91,-110.71"/>
</a>
</g>
</g>
<!-- Node7 -->
<g id="Node000007" class="node">
<title>Node7</title>
<g id="a_Node000007"><a xlink:href="group__core__api.html#ga5df230aba0f71c75b14cc8498ae5cec6" target="_top" xlink:title="Configure the internal pull resistor for a GPIO pin.">
<polygon fill="white" stroke="#666666" points="179,-79.71 129,-79.71 129,-60.71 179,-60.71 179,-79.71"/>
<text text-anchor="middle" x="154" y="-67.71" font-family="Helvetica,sans-Serif" font-size="10.00">pinpull</text>
</a>
</g>
</g>
<!-- Node1&#45;&gt;Node7 -->
<g id="edge7_Node000001_Node000007" class="edge">
<title>Node1&#45;&gt;Node7</title>
<g id="a_edge7_Node000001_Node000007"><a xlink:title=" ">
<path fill="none" stroke="#63b8ff" d="M224.26,-94.38C209.38,-89.19 192.62,-83.34 179.31,-78.69"/>
<polygon fill="#63b8ff" stroke="#63b8ff" points="223.11,-97.69 233.7,-97.68 225.41,-91.08 223.11,-97.69"/>
</a>
</g>
</g>
<!-- Node8 -->
<g id="Node000008" class="node">
<title>Node8</title>
<g id="a_Node000008"><a xlink:href="group__core__api.html#ga3fcd2e6e8ef98f3b9331de79dc1fc20d" target="_top" xlink:title="Toggle the output state of a GPIO pin.">
<polygon fill="white" stroke="#666666" points="69.5,-23.71 7.5,-23.71 7.5,-4.71 69.5,-4.71 69.5,-23.71"/>
<text text-anchor="middle" x="38.5" y="-11.71" font-family="Helvetica,sans-Serif" font-size="10.00">pintoggle</text>
</a>
</g>
</g>
<!-- Node1&#45;&gt;Node8 -->
<g id="edge8_Node000001_Node000008" class="edge">
<title>Node1&#45;&gt;Node8</title>
<g id="a_edge8_Node000001_Node000008"><a xlink:title=" ">
<path fill="none" stroke="#63b8ff" d="M253.79,-88.03C244.21,-65.63 224.92,-29.66 195,-14.21 155.54,6.17 102.59,0.36 69.77,-6.4"/>
<polygon fill="#63b8ff" stroke="#63b8ff" points="250.64,-89.55 257.62,-97.52 257.13,-86.93 250.64,-89.55"/>
</a>
</g>
</g>
<!-- Node9 -->
<g id="Node000009" class="node">
<title>Node9</title>
<g id="a_Node000009"><a xlink:href="group__core__api.html#ga667ec854157d4f186d37073adf17c3d5" target="_top" xlink:title="Write a digital value (HIGH or LOW) to a GPIO output pin.">
<polygon fill="white" stroke="#666666" points="182,-42.71 126,-42.71 126,-23.71 182,-23.71 182,-42.71"/>
<text text-anchor="middle" x="154" y="-30.71" font-family="Helvetica,sans-Serif" font-size="10.00">pinwrite</text>
</a>
</g>
</g>
<!-- Node1&#45;&gt;Node9 -->
<g id="edge9_Node000001_Node000009" class="edge">
<title>Node1&#45;&gt;Node9</title>
<g id="a_edge9_Node000001_Node000009"><a xlink:title=" ">
<path fill="none" stroke="#63b8ff" d="M243.31,-90.36C230.54,-78.73 212.52,-63.42 195,-52.21 189.69,-48.81 183.68,-45.64 177.96,-42.9"/>
<polygon fill="#63b8ff" stroke="#63b8ff" points="241.18,-93.15 250.89,-97.38 245.94,-88.02 241.18,-93.15"/>
</a>
</g>
</g>
<!-- Node5 -->
<g id="Node000005" class="node">
<title>Node5</title>
<g id="a_Node000005"><a xlink:href="group__core__api.html#ga77202d82ecb9267f1007ca750a0d67cb" target="_top" xlink:title="Quick pin test: briefly pulses a pin HIGH then LOW.">
<polygon fill="white" stroke="#666666" points="77,-116.71 0,-116.71 0,-97.71 77,-97.71 77,-116.71"/>
<text text-anchor="middle" x="38.5" y="-104.71" font-family="Helvetica,sans-Serif" font-size="10.00">gpio_pintest</text>
</a>
</g>
</g>
<!-- Node4&#45;&gt;Node5 -->
<g id="edge4_Node000004_Node000005" class="edge">
<title>Node4&#45;&gt;Node5</title>
<g id="a_edge4_Node000004_Node000005"><a xlink:title=" ">
<path fill="none" stroke="#63b8ff" d="M115.63,-132.02C100.47,-127.08 83.21,-121.46 68.96,-116.81"/>
<polygon fill="#63b8ff" stroke="#63b8ff" points="114.64,-135.38 125.23,-135.16 116.81,-128.73 114.64,-135.38"/>
</a>
</g>
</g>
<!-- Node6&#45;&gt;Node5 -->
<g id="edge6_Node000006_Node000005" class="edge">
<title>Node6&#45;&gt;Node5</title>
<g id="a_edge6_Node000006_Node000005"><a xlink:title=" ">
<path fill="none" stroke="#63b8ff" d="M115.8,-107.21C103.42,-107.21 89.62,-107.21 77.19,-107.21"/>
<polygon fill="#63b8ff" stroke="#63b8ff" points="115.81,-110.71 125.81,-107.21 115.81,-103.71 115.81,-110.71"/>
</a>
</g>
</g>
<!-- Node9&#45;&gt;Node5 -->
<g id="edge10_Node000009_Node000005" class="edge">
<title>Node9&#45;&gt;Node5</title>
<g id="a_edge10_Node000009_Node000005"><a xlink:title=" ">
<path fill="none" stroke="#63b8ff" d="M121.39,-47.49C118.52,-49.01 115.68,-50.59 113,-52.21 89.8,-66.21 65,-85.87 50.96,-97.5"/>
<polygon fill="#63b8ff" stroke="#63b8ff" points="123.2,-50.5 130.58,-42.89 120.07,-44.24 123.2,-50.5"/>
</a>
</g>
</g>
<!-- Node9&#45;&gt;Node8 -->
<g id="edge11_Node000009_Node000008" class="edge">
<title>Node9&#45;&gt;Node8</title>
<g id="a_edge11_Node000009_Node000008"><a xlink:title=" ">
<path fill="none" stroke="#63b8ff" d="M115.84,-26.99C100.88,-24.48 83.84,-21.63 69.66,-19.26"/>
<polygon fill="#63b8ff" stroke="#63b8ff" points="115.37,-30.46 125.81,-28.66 116.53,-23.55 115.37,-30.46"/>
</a>
</g>
</g>
</g>
</svg>
</svg>

<style type='text/css'>
<![CDATA[
[data-mouse-over-selected='false'] { opacity: 0.7; }
[data-mouse-over-selected='true']  { opacity: 1.0; }
]]>
</style>
<script type="application/ecmascript"><![CDATA[
document.addEventListener('DOMContentLoaded', (event) => {
  highlightEdges();
  highlightAdjacentNodes();
});
]]></script>
</svg>
