<?xml version="1.0" encoding="UTF-8" standalone="no"?>
<!DOCTYPE svg PUBLIC "-//W3C//DTD SVG 1.1//EN"
 "http://www.w3.org/Graphics/SVG/1.1/DTD/svg11.dtd">
<!-- Generated by graphviz version 2.43.0 (0)
 -->
<!-- Title: reg_read Pages: 1 -->
<svg width="298pt" height="212pt"
 viewBox="0.00 0.00 298.00 212.00" xmlns="http://www.w3.org/2000/svg" xmlns:xlink="http://www.w3.org/1999/xlink">

<svg id="main" version="1.1" xmlns="http://www.w3.org/2000/svg" xmlns:xlink="http://www.w3.org/1999/xlink" xml:space="preserve" onload="init(evt)">
<style type="text/css"><![CDATA[
.node, .edge {opacity: 0.7;}
.node.selected, .edge.selected {opacity: 1;}
.edge:hover path { stroke: red; }
.edge:hover polygon { stroke: red; fill: red; }
]]></style>
<script type="application/ecmascript" xlink:href="svg.min.js"/>
<svg id="graph" class="graph">
<g id="graph0" class="graph" transform="scale(1 1) rotate(0) translate(4 208)">
<title>reg_read</title>
<!-- Node1 -->
<g id="Node000001" class="node">
<title>Node1</title>
<g id="a_Node000001"><a xlink:title="Read a 32&#45;bit hardware register.">
<polygon fill="#999999" stroke="#666666" points="290,-111 231,-111 231,-92 290,-92 290,-111"/>
<text text-anchor="middle" x="260.5" y="-99" font-family="Helvetica,sans-Serif" font-size="10.00">reg_read</text>
</a>
</g>
</g>
<!-- Node2 -->
<g id="Node000002" class="node">
<title>Node2</title>
<g id="a_Node000002"><a xlink:href="group__core__api.html#ga14b33365797a7a60d0f4b213de42564e" target="_top" xlink:title="Set the output drive strength for a GPIO pin.">
<polygon fill="white" stroke="#666666" points="195,-204 113,-204 113,-185 195,-185 195,-204"/>
<text text-anchor="middle" x="154" y="-192" font-family="Helvetica,sans-Serif" font-size="10.00">pin_set_drive</text>
</a>
</g>
</g>
<!-- Node1&#45;&gt;Node2 -->
<g id="edge1_Node000001_Node000002" class="edge">
<title>Node1&#45;&gt;Node2</title>
<g id="a_edge1_Node000001_Node000002"><a xlink:title=" ">
<path fill="none" stroke="#63b8ff" d="M247.32,-119.79C235.53,-136.36 216.36,-160.54 195,-176.5 190.73,-179.69 185.8,-182.48 180.9,-184.85"/>
<polygon fill="#63b8ff" stroke="#63b8ff" points="250.26,-121.69 253.07,-111.47 244.5,-117.71 250.26,-121.69"/>
</a>
</g>
</g>
<!-- Node3 -->
<g id="Node000003" class="node">
<title>Node3</title>
<g id="a_Node000003"><a xlink:href="group__core__api.html#ga518d1f257c42eb5a1819fcb65ccce21a" target="_top" xlink:title="Set the alternate function (FUNCSEL) for a GPIO pin.">
<polygon fill="white" stroke="#666666" points="176,-167 132,-167 132,-148 176,-148 176,-167"/>
<text text-anchor="middle" x="154" y="-155" font-family="Helvetica,sans-Serif" font-size="10.00">pinalt</text>
</a>
</g>
</g>
<!-- Node1&#45;&gt;Node3 -->
<g id="edge2_Node000001_Node000003" class="edge">
<title>Node1&#45;&gt;Node3</title>
<g id="a_edge2_Node000001_Node000003"><a xlink:title=" ">
<path fill="none" stroke="#63b8ff" d="M235.82,-116.29C223.77,-123.6 208.8,-132.36 195,-139.5 189.05,-142.58 182.46,-145.67 176.38,-148.4"/>
<polygon fill="#63b8ff" stroke="#63b8ff" points="237.69,-119.25 244.39,-111.04 234.03,-113.28 237.69,-119.25"/>
</a>
</g>
</g>
<!-- Node4 -->
<g id="Node000004" class="node">
<title>Node4</title>
<g id="a_Node000004"><a xlink:href="group__core__api.html#gada367c7b74bcd93238d109084d86fcf0" target="_top" xlink:title="Close a GPIO pin and reset it to a safe state.">
<polygon fill="white" stroke="#666666" points="182.5,-130 125.5,-130 125.5,-111 182.5,-111 182.5,-130"/>
<text text-anchor="middle" x="154" y="-118" font-family="Helvetica,sans-Serif" font-size="10.00">pinclose</text>
</a>
</g>
</g>
<!-- Node1&#45;&gt;Node4 -->
<g id="edge3_Node000001_Node000004" class="edge">
<title>Node1&#45;&gt;Node4</title>
<g id="a_edge3_Node000001_Node000004"><a xlink:title=" ">
<path fill="none" stroke="#63b8ff" d="M221.08,-108.48C208.4,-110.79 194.53,-113.31 182.8,-115.45"/>
<polygon fill="#63b8ff" stroke="#63b8ff" points="221.73,-111.92 230.94,-106.69 220.48,-105.04 221.73,-111.92"/>
</a>
</g>
</g>
<!-- Node6 -->
<g id="Node000006" class="node">
<title>Node6</title>
<g id="a_Node000006"><a xlink:href="group__core__api.html#ga5d5e6f66c606a30568f2f5e83653fdb6" target="_top" xlink:title="Open a GPIO pin for use in the specified direction.">
<polygon fill="white" stroke="#666666" points="182,-93 126,-93 126,-74 182,-74 182,-93"/>
<text text-anchor="middle" x="154" y="-81" font-family="Helvetica,sans-Serif" font-size="10.00">pinopen</text>
</a>
</g>
</g>
<!-- Node1&#45;&gt;Node6 -->
<g id="edge5_Node000001_Node000006" class="edge">
<title>Node1&#45;&gt;Node6</title>
<g id="a_edge5_Node000001_Node000006"><a xlink:title=" ">
<path fill="none" stroke="#63b8ff" d="M220.92,-94.85C208.02,-92.63 193.92,-90.2 182.08,-88.16"/>
<polygon fill="#63b8ff" stroke="#63b8ff" points="220.5,-98.33 230.94,-96.58 221.68,-91.43 220.5,-98.33"/>
</a>
</g>
</g>
<!-- Node7 -->
<g id="Node000007" class="node">
<title>Node7</title>
<g id="a_Node000007"><a xlink:href="group__core__api.html#ga5df230aba0f71c75b14cc8498ae5cec6" target="_top" xlink:title="Configure the internal pull resistor for a GPIO pin.">
<polygon fill="white" stroke="#666666" points="179,-56 129,-56 129,-37 179,-37 179,-56"/>
<text text-anchor="middle" x="154" y="-44" font-family="Helvetica,sans-Serif" font-size="10.00">pinpull</text>
</a>
</g>
</g>
<!-- Node1&#45;&gt;Node7 -->
<g id="edge7_Node000001_Node000007" class="edge">
<title>Node1&#45;&gt;Node7</title>
<g id="a_edge7_Node000001_Node000007"><a xlink:title=" ">
<path fill="none" stroke="#63b8ff" d="M234.1,-86.82C222.31,-80.13 208.04,-72.23 195,-65.5 188.85,-62.33 182.08,-59.04 175.89,-56.1"/>
<polygon fill="#63b8ff" stroke="#63b8ff" points="232.54,-89.96 242.96,-91.87 236.01,-83.88 232.54,-89.96"/>
</a>
</g>
</g>
<!-- Node8 -->
<g id="Node000008" class="node">
<title>Node8</title>
<g id="a_Node000008"><a xlink:href="group__core__api.html#gaa1c9a22bd9f995b5bd9520bf55761835" target="_top" xlink:title="Read the current logic level of a GPIO pin.">
<polygon fill="white" stroke="#666666" points="180.5,-19 127.5,-19 127.5,0 180.5,0 180.5,-19"/>
<text text-anchor="middle" x="154" y="-7" font-family="Helvetica,sans-Serif" font-size="10.00">pinread</text>
</a>
</g>
</g>
<!-- Node1&#45;&gt;Node8 -->
<g id="edge8_Node000001_Node000008" class="edge">
<title>Node1&#45;&gt;Node8</title>
<g id="a_edge8_Node000001_Node000008"><a xlink:title=" ">
<path fill="none" stroke="#63b8ff" d="M246.81,-83.37C234.88,-67.34 215.78,-44.14 195,-28.5 190.21,-24.89 184.62,-21.72 179.17,-19.05"/>
<polygon fill="#63b8ff" stroke="#63b8ff" points="244.26,-85.82 252.96,-91.87 249.93,-81.71 244.26,-85.82"/>
</a>
</g>
</g>
<!-- Node5 -->
<g id="Node000005" class="node">
<title>Node5</title>
<g id="a_Node000005"><a xlink:href="group__core__api.html#ga77202d82ecb9267f1007ca750a0d67cb" target="_top" xlink:title="Quick pin test: briefly pulses a pin HIGH then LOW.">
<polygon fill="white" stroke="#666666" points="77,-111 0,-111 0,-92 77,-92 77,-111"/>
<text text-anchor="middle" x="38.5" y="-99" font-family="Helvetica,sans-Serif" font-size="10.00">gpio_pintest</text>
</a>
</g>
</g>
<!-- Node4&#45;&gt;Node5 -->
<g id="edge4_Node000004_Node000005" class="edge">
<title>Node4&#45;&gt;Node5</title>
<g id="a_edge4_Node000004_Node000005"><a xlink:title=" ">
<path fill="none" stroke="#63b8ff" d="M115.33,-114.19C103.09,-112.14 89.51,-109.87 77.26,-107.82"/>
<polygon fill="#63b8ff" stroke="#63b8ff" points="114.79,-117.65 125.23,-115.85 115.95,-110.75 114.79,-117.65"/>
</a>
</g>
</g>
<!-- Node6&#45;&gt;Node5 -->
<g id="edge6_Node000006_Node000005" class="edge">
<title>Node6&#45;&gt;Node5</title>
<g id="a_edge6_Node000006_Node000005"><a xlink:title=" ">
<path fill="none" stroke="#63b8ff" d="M115.8,-89.4C103.42,-91.36 89.62,-93.55 77.19,-95.52"/>
<polygon fill="#63b8ff" stroke="#63b8ff" points="116.49,-92.83 125.81,-87.81 115.39,-85.92 116.49,-92.83"/>
</a>
</g>
</g>
<!-- Node9 -->
<g id="Node000009" class="node">
<title>Node9</title>
<g id="a_Node000009"><a xlink:href="group__core__api.html#ga3fcd2e6e8ef98f3b9331de79dc1fc20d" target="_top" xlink:title="Toggle the output state of a GPIO pin (pinctrl backend).">
<polygon fill="white" stroke="#666666" points="69.5,-19 7.5,-19 7.5,0 69.5,0 69.5,-19"/>
<text text-anchor="middle" x="38.5" y="-7" font-family="Helvetica,sans-Serif" font-size="10.00">pintoggle</text>
</a>
</g>
</g>
<!-- Node8&#45;&gt;Node9 -->
<g id="edge9_Node000008_Node000009" class="edge">
<title>Node8&#45;&gt;Node9</title>
<g id="a_edge9_Node000008_Node000009"><a xlink:title=" ">
<path fill="none" stroke="#63b8ff" d="M117.1,-9.5C101.81,-9.5 84.17,-9.5 69.57,-9.5"/>
<polygon fill="#63b8ff" stroke="#63b8ff" points="117.25,-13 127.25,-9.5 117.25,-6 117.25,-13"/>
</a>
</g>
</g>
</g>
</svg>
</svg>

<style type='text/css'>
<![CDATA[
[data-mouse-over-selected='false'] { opacity: 0.7; }
[data-mouse-over-selected='true']  { opacity: 1.0; }
]]>
</style>
<script type="application/ecmascript"><![CDATA[
document.addEventListener('DOMContentLoaded', (event) => {
  highlightEdges();
  highlightAdjacentNodes();
});
]]></script>
</svg>
