<?xml version="1.0" encoding="UTF-8" standalone="no"?>
<!DOCTYPE svg PUBLIC "-//W3C//DTD SVG 1.1//EN"
 "http://www.w3.org/Graphics/SVG/1.1/DTD/svg11.dtd">
<!-- Generated by graphviz version 2.43.0 (0)
 -->
<!-- Title: gpio_valid_pin Pages: 1 -->
<svg width="326pt" height="293pt"
 viewBox="0.00 0.00 326.00 293.35" xmlns="http://www.w3.org/2000/svg" xmlns:xlink="http://www.w3.org/1999/xlink">
<g id="graph0" class="graph" transform="scale(1 1) rotate(0) translate(4 289.35)">
<title>gpio_valid_pin</title>
<!-- Node1 -->
<g id="Node000001" class="node">
<title>Node1</title>
<g id="a_Node000001"><a xlink:title="Validate that a pin number is within the RP1 range.">
<polygon fill="#999999" stroke="#666666" points="318,-151.61 231,-151.61 231,-132.61 318,-132.61 318,-151.61"/>
<text text-anchor="middle" x="274.5" y="-139.61" font-family="Helvetica,sans-Serif" font-size="10.00">gpio_valid_pin</text>
</a>
</g>
</g>
<!-- Node2 -->
<g id="Node000002" class="node">
<title>Node2</title>
<g id="a_Node000002"><a xlink:href="group__core__api.html#ga77202d82ecb9267f1007ca750a0d67cb" target="_top" xlink:title="Quick pin test: briefly pulses a pin HIGH then LOW.">
<polygon fill="white" stroke="#666666" points="77,-169.61 0,-169.61 0,-150.61 77,-150.61 77,-169.61"/>
<text text-anchor="middle" x="38.5" y="-157.61" font-family="Helvetica,sans-Serif" font-size="10.00">gpio_pintest</text>
</a>
</g>
</g>
<!-- Node1&#45;&gt;Node2 -->
<g id="edge1_Node000001_Node000002" class="edge">
<title>Node1&#45;&gt;Node2</title>
<g id="a_edge1_Node000001_Node000002"><a xlink:title=" ">
<path fill="none" stroke="#63b8ff" d="M268.44,-161.34C259.4,-191.32 237.33,-248.22 195,-272.11 163.26,-290.02 145.07,-289.42 113,-272.11 71.45,-249.68 49.58,-192.4 42.3,-169.64"/>
<polygon fill="#63b8ff" stroke="#63b8ff" points="271.84,-162.2 271.2,-151.62 265.1,-160.29 271.84,-162.2"/>
</a>
</g>
</g>
<!-- Node3 -->
<g id="Node000003" class="node">
<title>Node3</title>
<g id="a_Node000003"><a xlink:href="group__core__api.html#ga14b33365797a7a60d0f4b213de42564e" target="_top" xlink:title="Set the output drive strength for a GPIO pin.">
<polygon fill="white" stroke="#666666" points="195,-262.61 113,-262.61 113,-243.61 195,-243.61 195,-262.61"/>
<text text-anchor="middle" x="154" y="-250.61" font-family="Helvetica,sans-Serif" font-size="10.00">pin_set_drive</text>
</a>
</g>
</g>
<!-- Node1&#45;&gt;Node3 -->
<g id="edge2_Node000001_Node000003" class="edge">
<title>Node1&#45;&gt;Node3</title>
<g id="a_edge2_Node000001_Node000003"><a xlink:title=" ">
<path fill="none" stroke="#63b8ff" d="M261.94,-160.17C248.1,-180.61 223.23,-213.81 195,-235.11 190.74,-238.32 185.83,-241.12 180.92,-243.49"/>
<polygon fill="#63b8ff" stroke="#63b8ff" points="264.9,-162.04 267.49,-151.77 259.06,-158.18 264.9,-162.04"/>
</a>
</g>
</g>
<!-- Node4 -->
<g id="Node000004" class="node">
<title>Node4</title>
<g id="a_Node000004"><a xlink:href="group__core__api.html#ga518d1f257c42eb5a1819fcb65ccce21a" target="_top" xlink:title="Set the alternate function (FUNCSEL) for a GPIO pin.">
<polygon fill="white" stroke="#666666" points="176,-225.61 132,-225.61 132,-206.61 176,-206.61 176,-225.61"/>
<text text-anchor="middle" x="154" y="-213.61" font-family="Helvetica,sans-Serif" font-size="10.00">pinalt</text>
</a>
</g>
</g>
<!-- Node1&#45;&gt;Node4 -->
<g id="edge3_Node000001_Node000004" class="edge">
<title>Node1&#45;&gt;Node4</title>
<g id="a_edge3_Node000001_Node000004"><a xlink:title=" ">
<path fill="none" stroke="#63b8ff" d="M253.23,-158.25C237.8,-170.12 215.75,-186.19 195,-198.11 189.06,-201.52 182.35,-204.76 176.15,-207.52"/>
<polygon fill="#63b8ff" stroke="#63b8ff" points="255.76,-160.72 261.49,-151.81 251.46,-155.2 255.76,-160.72"/>
</a>
</g>
</g>
<!-- Node5 -->
<g id="Node000005" class="node">
<title>Node5</title>
<g id="a_Node000005"><a xlink:href="group__core__api.html#gada367c7b74bcd93238d109084d86fcf0" target="_top" xlink:title="Close a GPIO pin and reset it to a safe state.">
<polygon fill="white" stroke="#666666" points="182.5,-188.61 125.5,-188.61 125.5,-169.61 182.5,-169.61 182.5,-188.61"/>
<text text-anchor="middle" x="154" y="-176.61" font-family="Helvetica,sans-Serif" font-size="10.00">pinclose</text>
</a>
</g>
</g>
<!-- Node1&#45;&gt;Node5 -->
<g id="edge4_Node000001_Node000005" class="edge">
<title>Node1&#45;&gt;Node5</title>
<g id="a_edge4_Node000001_Node000005"><a xlink:title=" ">
<path fill="none" stroke="#63b8ff" d="M232.98,-154.76C216.36,-159.95 197.56,-165.82 182.58,-170.5"/>
<polygon fill="#63b8ff" stroke="#63b8ff" points="234.48,-157.96 242.98,-151.64 232.39,-151.28 234.48,-157.96"/>
</a>
</g>
</g>
<!-- Node6 -->
<g id="Node000006" class="node">
<title>Node6</title>
<g id="a_Node000006"><a xlink:href="group__core__api.html#ga5d5e6f66c606a30568f2f5e83653fdb6" target="_top" xlink:title="Open a GPIO pin for use in the specified direction.">
<polygon fill="white" stroke="#666666" points="182,-151.61 126,-151.61 126,-132.61 182,-132.61 182,-151.61"/>
<text text-anchor="middle" x="154" y="-139.61" font-family="Helvetica,sans-Serif" font-size="10.00">pinopen</text>
</a>
</g>
</g>
<!-- Node1&#45;&gt;Node6 -->
<g id="edge6_Node000001_Node000006" class="edge">
<title>Node1&#45;&gt;Node6</title>
<g id="a_edge6_Node000001_Node000006"><a xlink:title=" ">
<path fill="none" stroke="#63b8ff" d="M220.69,-142.11C207.4,-142.11 193.67,-142.11 182.22,-142.11"/>
<polygon fill="#63b8ff" stroke="#63b8ff" points="220.72,-145.61 230.72,-142.11 220.72,-138.61 220.72,-145.61"/>
</a>
</g>
</g>
<!-- Node7 -->
<g id="Node000007" class="node">
<title>Node7</title>
<g id="a_Node000007"><a xlink:href="group__core__api.html#ga5df230aba0f71c75b14cc8498ae5cec6" target="_top" xlink:title="Configure the internal pull resistor for a GPIO pin.">
<polygon fill="white" stroke="#666666" points="179,-114.61 129,-114.61 129,-95.61 179,-95.61 179,-114.61"/>
<text text-anchor="middle" x="154" y="-102.61" font-family="Helvetica,sans-Serif" font-size="10.00">pinpull</text>
</a>
</g>
</g>
<!-- Node1&#45;&gt;Node7 -->
<g id="edge8_Node000001_Node000007" class="edge">
<title>Node1&#45;&gt;Node7</title>
<g id="a_edge8_Node000001_Node000007"><a xlink:title=" ">
<path fill="none" stroke="#63b8ff" d="M233.29,-129.55C215.28,-123.93 194.63,-117.48 179.06,-112.62"/>
<polygon fill="#63b8ff" stroke="#63b8ff" points="232.39,-132.94 242.98,-132.58 234.48,-126.26 232.39,-132.94"/>
</a>
</g>
</g>
<!-- Node8 -->
<g id="Node000008" class="node">
<title>Node8</title>
<g id="a_Node000008"><a xlink:href="group__core__api.html#gaa1c9a22bd9f995b5bd9520bf55761835" target="_top" xlink:title="Read the current logic level of a GPIO pin.">
<polygon fill="white" stroke="#666666" points="180.5,-40.61 127.5,-40.61 127.5,-21.61 180.5,-21.61 180.5,-40.61"/>
<text text-anchor="middle" x="154" y="-28.61" font-family="Helvetica,sans-Serif" font-size="10.00">pinread</text>
</a>
</g>
</g>
<!-- Node1&#45;&gt;Node8 -->
<g id="edge9_Node000001_Node000008" class="edge">
<title>Node1&#45;&gt;Node8</title>
<g id="a_edge9_Node000001_Node000008"><a xlink:title=" ">
<path fill="none" stroke="#63b8ff" d="M261.94,-124.04C248.1,-103.6 223.23,-70.4 195,-49.11 190.62,-45.81 185.54,-42.94 180.5,-40.52"/>
<polygon fill="#63b8ff" stroke="#63b8ff" points="259.06,-126.03 267.49,-132.44 264.9,-122.17 259.06,-126.03"/>
</a>
</g>
</g>
<!-- Node9 -->
<g id="Node000009" class="node">
<title>Node9</title>
<g id="a_Node000009"><a xlink:href="group__core__api.html#ga3fcd2e6e8ef98f3b9331de79dc1fc20d" target="_top" xlink:title="Toggle the output state of a GPIO pin (pinctrl backend).">
<polygon fill="white" stroke="#666666" points="69.5,-40.61 7.5,-40.61 7.5,-21.61 69.5,-21.61 69.5,-40.61"/>
<text text-anchor="middle" x="38.5" y="-28.61" font-family="Helvetica,sans-Serif" font-size="10.00">pintoggle</text>
</a>
</g>
</g>
<!-- Node1&#45;&gt;Node9 -->
<g id="edge11_Node000001_Node000009" class="edge">
<title>Node1&#45;&gt;Node9</title>
<g id="a_edge11_Node000001_Node000009"><a xlink:title=" ">
<path fill="none" stroke="#63b8ff" d="M268.44,-122.88C259.4,-92.9 237.33,-36 195,-12.11 151.54,12.42 90.49,-7.98 59.39,-21.5"/>
<polygon fill="#63b8ff" stroke="#63b8ff" points="265.1,-123.92 271.2,-132.59 271.84,-122.02 265.1,-123.92"/>
</a>
</g>
</g>
<!-- Node10 -->
<g id="Node000010" class="node">
<title>Node10</title>
<g id="a_Node000010"><a xlink:href="group__core__api.html#ga667ec854157d4f186d37073adf17c3d5" target="_top" xlink:title="Write a digital value (HIGH or LOW) to a GPIO output pin.">
<polygon fill="white" stroke="#666666" points="182,-77.61 126,-77.61 126,-58.61 182,-58.61 182,-77.61"/>
<text text-anchor="middle" x="154" y="-65.61" font-family="Helvetica,sans-Serif" font-size="10.00">pinwrite</text>
</a>
</g>
</g>
<!-- Node1&#45;&gt;Node10 -->
<g id="edge12_Node000001_Node000010" class="edge">
<title>Node1&#45;&gt;Node10</title>
<g id="a_edge12_Node000001_Node000010"><a xlink:title=" ">
<path fill="none" stroke="#63b8ff" d="M252.85,-126.2C237.37,-114.64 215.44,-99.01 195,-87.11 189.29,-83.78 182.9,-80.54 176.93,-77.71"/>
<polygon fill="#63b8ff" stroke="#63b8ff" points="251.06,-129.24 261.15,-132.48 255.28,-123.66 251.06,-129.24"/>
</a>
</g>
</g>
<!-- Node5&#45;&gt;Node2 -->
<g id="edge5_Node000005_Node000002" class="edge">
<title>Node5&#45;&gt;Node2</title>
<g id="a_edge5_Node000005_Node000002"><a xlink:title=" ">
<path fill="none" stroke="#63b8ff" d="M115.33,-172.8C103.09,-170.75 89.51,-168.48 77.26,-166.43"/>
<polygon fill="#63b8ff" stroke="#63b8ff" points="114.79,-176.26 125.23,-174.46 115.95,-169.36 114.79,-176.26"/>
</a>
</g>
</g>
<!-- Node6&#45;&gt;Node2 -->
<g id="edge7_Node000006_Node000002" class="edge">
<title>Node6&#45;&gt;Node2</title>
<g id="a_edge7_Node000006_Node000002"><a xlink:title=" ">
<path fill="none" stroke="#63b8ff" d="M115.8,-148.01C103.42,-149.97 89.62,-152.16 77.19,-154.13"/>
<polygon fill="#63b8ff" stroke="#63b8ff" points="116.49,-151.44 125.81,-146.42 115.39,-144.53 116.49,-151.44"/>
</a>
</g>
</g>
<!-- Node8&#45;&gt;Node9 -->
<g id="edge10_Node000008_Node000009" class="edge">
<title>Node8&#45;&gt;Node9</title>
<g id="a_edge10_Node000008_Node000009"><a xlink:title=" ">
<path fill="none" stroke="#63b8ff" d="M117.1,-31.11C101.81,-31.11 84.17,-31.11 69.57,-31.11"/>
<polygon fill="#63b8ff" stroke="#63b8ff" points="117.25,-34.61 127.25,-31.11 117.25,-27.61 117.25,-34.61"/>
</a>
</g>
</g>
<!-- Node10&#45;&gt;Node2 -->
<g id="edge13_Node000010_Node000002" class="edge">
<title>Node10&#45;&gt;Node2</title>
<g id="a_edge13_Node000010_Node000002"><a xlink:title=" ">
<path fill="none" stroke="#63b8ff" d="M120.48,-82.38C117.88,-83.87 115.36,-85.45 113,-87.11 85.93,-106.14 59.8,-135.52 47.25,-150.55"/>
<polygon fill="#63b8ff" stroke="#63b8ff" points="122.19,-85.44 129.41,-77.69 118.93,-79.24 122.19,-85.44"/>
</a>
</g>
</g>
<!-- Node10&#45;&gt;Node9 -->
<g id="edge14_Node000010_Node000009" class="edge">
<title>Node10&#45;&gt;Node9</title>
<g id="a_edge14_Node000010_Node000009"><a xlink:title=" ">
<path fill="none" stroke="#63b8ff" d="M116.12,-56.09C100.8,-51.09 83.27,-45.38 68.85,-40.68"/>
<polygon fill="#63b8ff" stroke="#63b8ff" points="115.22,-59.47 125.81,-59.25 117.39,-52.82 115.22,-59.47"/>
</a>
</g>
</g>
</g>
</svg>
