<?xml version="1.0" encoding="UTF-8" standalone="no"?>
<!DOCTYPE svg PUBLIC "-//W3C//DTD SVG 1.1//EN"
 "http://www.w3.org/Graphics/SVG/1.1/DTD/svg11.dtd">
<!-- Generated by graphviz version 2.43.0 (0)
 -->
<!-- Title: gpio_valid_pin Pages: 1 -->
<svg width="301pt" height="229pt"
 viewBox="0.00 0.00 301.00 229.24" xmlns="http://www.w3.org/2000/svg" xmlns:xlink="http://www.w3.org/1999/xlink">
<g id="graph0" class="graph" transform="scale(1 1) rotate(0) translate(4 225.24)">
<title>gpio_valid_pin</title>
<!-- Node1 -->
<g id="Node000001" class="node">
<title>Node1</title>
<g id="a_Node000001"><a xlink:title="Validate that a pin index is within any known GPIO range.">
<polygon fill="#999999" stroke="#666666" points="293,-130 206,-130 206,-111 293,-111 293,-130"/>
<text text-anchor="middle" x="249.5" y="-118" font-family="Helvetica,sans-Serif" font-size="10.00">gpio_valid_pin</text>
</a>
</g>
</g>
<!-- Node2 -->
<g id="Node000002" class="node">
<title>Node2</title>
<g id="a_Node000002"><a xlink:href="group__core__api.html#ga77202d82ecb9267f1007ca750a0d67cb" target="_top" xlink:title="Quick pin test: pulse a pin HIGH for 1 second (pinctrl backend).">
<polygon fill="white" stroke="#666666" points="77,-148 0,-148 0,-129 77,-129 77,-148"/>
<text text-anchor="middle" x="38.5" y="-136" font-family="Helvetica,sans-Serif" font-size="10.00">gpio_pintest</text>
</a>
</g>
</g>
<!-- Node1&#45;&gt;Node2 -->
<g id="edge1_Node000001_Node000002" class="edge">
<title>Node1&#45;&gt;Node2</title>
<g id="a_edge1_Node000001_Node000002"><a xlink:title=" ">
<path fill="none" stroke="#63b8ff" d="M239.25,-139.18C226.95,-161.64 202.88,-198.22 170,-213.5 147.02,-224.17 136.36,-223.31 113,-213.5 81.07,-200.08 56.05,-165.27 45.27,-148.21"/>
<polygon fill="#63b8ff" stroke="#63b8ff" points="242.39,-140.73 243.93,-130.25 236.19,-137.48 242.39,-140.73"/>
</a>
</g>
</g>
<!-- Node3 -->
<g id="Node000003" class="node">
<title>Node3</title>
<g id="a_Node000003"><a xlink:href="group__core__api.html#ga518d1f257c42eb5a1819fcb65ccce21a" target="_top" xlink:title="Set the alternate function for a GPIO pin (pinctrl backend).">
<polygon fill="white" stroke="#666666" points="163.5,-204 119.5,-204 119.5,-185 163.5,-185 163.5,-204"/>
<text text-anchor="middle" x="141.5" y="-192" font-family="Helvetica,sans-Serif" font-size="10.00">pinalt</text>
</a>
</g>
</g>
<!-- Node1&#45;&gt;Node3 -->
<g id="edge2_Node000001_Node000003" class="edge">
<title>Node1&#45;&gt;Node3</title>
<g id="a_edge2_Node000001_Node000003"><a xlink:title=" ">
<path fill="none" stroke="#63b8ff" d="M226.82,-136.32C211.15,-147.67 189.41,-163.23 170,-176.5 165.95,-179.27 161.52,-182.21 157.42,-184.89"/>
<polygon fill="#63b8ff" stroke="#63b8ff" points="229.25,-138.88 235.28,-130.18 225.13,-133.22 229.25,-138.88"/>
</a>
</g>
</g>
<!-- Node4 -->
<g id="Node000004" class="node">
<title>Node4</title>
<g id="a_Node000004"><a xlink:href="group__core__api.html#gada367c7b74bcd93238d109084d86fcf0" target="_top" xlink:title="Close a GPIO pin and reset to input (pinctrl backend).">
<polygon fill="white" stroke="#666666" points="170,-167 113,-167 113,-148 170,-148 170,-167"/>
<text text-anchor="middle" x="141.5" y="-155" font-family="Helvetica,sans-Serif" font-size="10.00">pinclose</text>
</a>
</g>
</g>
<!-- Node1&#45;&gt;Node4 -->
<g id="edge3_Node000001_Node000004" class="edge">
<title>Node1&#45;&gt;Node4</title>
<g id="a_edge3_Node000001_Node000004"><a xlink:title=" ">
<path fill="none" stroke="#63b8ff" d="M211.61,-133.38C197.96,-138.14 182.75,-143.45 170.07,-147.88"/>
<polygon fill="#63b8ff" stroke="#63b8ff" points="212.91,-136.63 221.2,-130.03 210.61,-130.02 212.91,-136.63"/>
</a>
</g>
</g>
<!-- Node5 -->
<g id="Node000005" class="node">
<title>Node5</title>
<g id="a_Node000005"><a xlink:href="group__core__api.html#ga5d5e6f66c606a30568f2f5e83653fdb6" target="_top" xlink:title="Open a GPIO pin in the specified direction (pinctrl backend).">
<polygon fill="white" stroke="#666666" points="169.5,-130 113.5,-130 113.5,-111 169.5,-111 169.5,-130"/>
<text text-anchor="middle" x="141.5" y="-118" font-family="Helvetica,sans-Serif" font-size="10.00">pinopen</text>
</a>
</g>
</g>
<!-- Node1&#45;&gt;Node5 -->
<g id="edge5_Node000001_Node000005" class="edge">
<title>Node1&#45;&gt;Node5</title>
<g id="a_edge5_Node000001_Node000005"><a xlink:title=" ">
<path fill="none" stroke="#63b8ff" d="M195.86,-120.5C186.83,-120.5 177.79,-120.5 169.78,-120.5"/>
<polygon fill="#63b8ff" stroke="#63b8ff" points="196,-124 206,-120.5 196,-117 196,-124"/>
</a>
</g>
</g>
<!-- Node6 -->
<g id="Node000006" class="node">
<title>Node6</title>
<g id="a_Node000006"><a xlink:href="group__core__api.html#ga5df230aba0f71c75b14cc8498ae5cec6" target="_top" xlink:title="Configure the internal pull resistor (pinctrl backend).">
<polygon fill="white" stroke="#666666" points="166.5,-93 116.5,-93 116.5,-74 166.5,-74 166.5,-93"/>
<text text-anchor="middle" x="141.5" y="-81" font-family="Helvetica,sans-Serif" font-size="10.00">pinpull</text>
</a>
</g>
</g>
<!-- Node1&#45;&gt;Node6 -->
<g id="edge7_Node000001_Node000006" class="edge">
<title>Node1&#45;&gt;Node6</title>
<g id="a_edge7_Node000001_Node000006"><a xlink:title=" ">
<path fill="none" stroke="#63b8ff" d="M211.76,-107.67C196.88,-102.48 180.12,-96.63 166.81,-91.99"/>
<polygon fill="#63b8ff" stroke="#63b8ff" points="210.61,-110.98 221.2,-110.97 212.91,-104.37 210.61,-110.98"/>
</a>
</g>
</g>
<!-- Node7 -->
<g id="Node000007" class="node">
<title>Node7</title>
<g id="a_Node000007"><a xlink:href="group__core__api.html#gaa1c9a22bd9f995b5bd9520bf55761835" target="_top" xlink:title="Read the current logic level of a GPIO pin (pinctrl backend).">
<polygon fill="white" stroke="#666666" points="168,-19 115,-19 115,0 168,0 168,-19"/>
<text text-anchor="middle" x="141.5" y="-7" font-family="Helvetica,sans-Serif" font-size="10.00">pinread</text>
</a>
</g>
</g>
<!-- Node1&#45;&gt;Node7 -->
<g id="edge8_Node000001_Node000007" class="edge">
<title>Node1&#45;&gt;Node7</title>
<g id="a_edge8_Node000001_Node000007"><a xlink:title=" ">
<path fill="none" stroke="#63b8ff" d="M235.86,-102.59C221.36,-82.81 196.2,-50.7 170,-27.5 166.58,-24.47 162.61,-21.58 158.78,-19.03"/>
<polygon fill="#63b8ff" stroke="#63b8ff" points="233.04,-104.67 241.73,-110.73 238.72,-100.57 233.04,-104.67"/>
</a>
</g>
</g>
<!-- Node9 -->
<g id="Node000009" class="node">
<title>Node9</title>
<g id="a_Node000009"><a xlink:href="group__core__api.html#ga667ec854157d4f186d37073adf17c3d5" target="_top" xlink:title="Write a digital value to a GPIO pin (pinctrl backend).">
<polygon fill="white" stroke="#666666" points="169.5,-56 113.5,-56 113.5,-37 169.5,-37 169.5,-56"/>
<text text-anchor="middle" x="141.5" y="-44" font-family="Helvetica,sans-Serif" font-size="10.00">pinwrite</text>
</a>
</g>
</g>
<!-- Node1&#45;&gt;Node9 -->
<g id="edge10_Node000001_Node000009" class="edge">
<title>Node1&#45;&gt;Node9</title>
<g id="a_edge10_Node000001_Node000009"><a xlink:title=" ">
<path fill="none" stroke="#63b8ff" d="M226.4,-104.96C210.68,-93.92 189.07,-78.77 170,-65.5 165.62,-62.45 160.83,-59.14 156.5,-56.15"/>
<polygon fill="#63b8ff" stroke="#63b8ff" points="224.71,-108.05 234.9,-110.93 228.73,-102.32 224.71,-108.05"/>
</a>
</g>
</g>
<!-- Node4&#45;&gt;Node2 -->
<g id="edge4_Node000004_Node000002" class="edge">
<title>Node4&#45;&gt;Node2</title>
<g id="a_edge4_Node000004_Node000002"><a xlink:title=" ">
<path fill="none" stroke="#63b8ff" d="M102.99,-150.44C94.6,-148.86 85.69,-147.19 77.29,-145.61"/>
<polygon fill="#63b8ff" stroke="#63b8ff" points="102.43,-153.9 112.9,-152.31 103.72,-147.02 102.43,-153.9"/>
</a>
</g>
</g>
<!-- Node5&#45;&gt;Node2 -->
<g id="edge6_Node000005_Node000002" class="edge">
<title>Node5&#45;&gt;Node2</title>
<g id="a_edge6_Node000005_Node000002"><a xlink:title=" ">
<path fill="none" stroke="#63b8ff" d="M103.39,-127.11C94.88,-128.63 85.81,-130.25 77.27,-131.77"/>
<polygon fill="#63b8ff" stroke="#63b8ff" points="104.2,-130.52 113.43,-125.32 102.97,-123.63 104.2,-130.52"/>
</a>
</g>
</g>
<!-- Node8 -->
<g id="Node000008" class="node">
<title>Node8</title>
<g id="a_Node000008"><a xlink:href="group__core__api.html#ga3fcd2e6e8ef98f3b9331de79dc1fc20d" target="_top" xlink:title="Toggle the output state of a GPIO pin (pinctrl backend).">
<polygon fill="white" stroke="#666666" points="69.5,-38 7.5,-38 7.5,-19 69.5,-19 69.5,-38"/>
<text text-anchor="middle" x="38.5" y="-26" font-family="Helvetica,sans-Serif" font-size="10.00">pintoggle</text>
</a>
</g>
</g>
<!-- Node7&#45;&gt;Node8 -->
<g id="edge9_Node000007_Node000008" class="edge">
<title>Node7&#45;&gt;Node8</title>
<g id="a_edge9_Node000007_Node000008"><a xlink:title=" ">
<path fill="none" stroke="#63b8ff" d="M104.59,-16.26C93.11,-18.42 80.52,-20.78 69.5,-22.86"/>
<polygon fill="#63b8ff" stroke="#63b8ff" points="105.57,-19.63 114.75,-14.34 104.28,-12.75 105.57,-19.63"/>
</a>
</g>
</g>
<!-- Node9&#45;&gt;Node2 -->
<g id="edge11_Node000009_Node000002" class="edge">
<title>Node9&#45;&gt;Node2</title>
<g id="a_edge11_Node000009_Node000002"><a xlink:title=" ">
<path fill="none" stroke="#63b8ff" d="M117.21,-62.15C115.77,-63.26 114.35,-64.38 113,-65.5 87.82,-86.42 61.3,-114.49 48.06,-128.97"/>
<polygon fill="#63b8ff" stroke="#63b8ff" points="119.54,-64.79 125.59,-56.09 115.43,-59.11 119.54,-64.79"/>
</a>
</g>
</g>
<!-- Node9&#45;&gt;Node8 -->
<g id="edge12_Node000009_Node000008" class="edge">
<title>Node9&#45;&gt;Node8</title>
<g id="a_edge12_Node000009_Node000008"><a xlink:title=" ">
<path fill="none" stroke="#63b8ff" d="M103.58,-39.92C92.49,-37.94 80.46,-35.8 69.85,-33.91"/>
<polygon fill="#63b8ff" stroke="#63b8ff" points="102.97,-43.37 113.43,-41.68 104.2,-36.48 102.97,-43.37"/>
</a>
</g>
</g>
</g>
</svg>
