<?xml version="1.0" encoding="UTF-8" standalone="no"?>
<!DOCTYPE svg PUBLIC "-//W3C//DTD SVG 1.1//EN"
 "http://www.w3.org/Graphics/SVG/1.1/DTD/svg11.dtd">
<!-- Generated by graphviz version 2.43.0 (0)
 -->
<!-- Title: pin_to_bank Pages: 1 -->
<svg width="315pt" height="270pt"
 viewBox="0.00 0.00 315.00 270.10" xmlns="http://www.w3.org/2000/svg" xmlns:xlink="http://www.w3.org/1999/xlink">
<g id="graph0" class="graph" transform="scale(1 1) rotate(0) translate(4 266.1)">
<title>pin_to_bank</title>
<!-- Node1 -->
<g id="Node000001" class="node">
<title>Node1</title>
<g id="a_Node000001"><a xlink:title="Resolve a GPIO number (0–53) into its bank&#45;specific parameters.">
<polygon fill="#999999" stroke="#666666" points="307,-132.1 231,-132.1 231,-113.1 307,-113.1 307,-132.1"/>
<text text-anchor="middle" x="269" y="-120.1" font-family="Helvetica,sans-Serif" font-size="10.00">pin_to_bank</text>
</a>
</g>
</g>
<!-- Node2 -->
<g id="Node000002" class="node">
<title>Node2</title>
<g id="a_Node000002"><a xlink:href="group__core__api.html#ga14b33365797a7a60d0f4b213de42564e" target="_top" xlink:title="Set the output drive strength for a GPIO pin.">
<polygon fill="white" stroke="#666666" points="195,-262.1 113,-262.1 113,-243.1 195,-243.1 195,-262.1"/>
<text text-anchor="middle" x="154" y="-250.1" font-family="Helvetica,sans-Serif" font-size="10.00">pin_set_drive</text>
</a>
</g>
</g>
<!-- Node1&#45;&gt;Node2 -->
<g id="edge1_Node000001_Node000002" class="edge">
<title>Node1&#45;&gt;Node2</title>
<g id="a_edge1_Node000001_Node000002"><a xlink:title=" ">
<path fill="none" stroke="#63b8ff" d="M259.8,-141.58C248.41,-165.97 225.7,-208.32 195,-234.6 191.18,-237.87 186.67,-240.65 182.09,-242.97"/>
<polygon fill="#63b8ff" stroke="#63b8ff" points="263.05,-142.87 263.97,-132.32 256.67,-139.99 263.05,-142.87"/>
</a>
</g>
</g>
<!-- Node3 -->
<g id="Node000003" class="node">
<title>Node3</title>
<g id="a_Node000003"><a xlink:href="group__core__api.html#ga518d1f257c42eb5a1819fcb65ccce21a" target="_top" xlink:title="Set the alternate function (FUNCSEL) for a GPIO pin.">
<polygon fill="white" stroke="#666666" points="176,-225.1 132,-225.1 132,-206.1 176,-206.1 176,-225.1"/>
<text text-anchor="middle" x="154" y="-213.1" font-family="Helvetica,sans-Serif" font-size="10.00">pinalt</text>
</a>
</g>
</g>
<!-- Node1&#45;&gt;Node3 -->
<g id="edge2_Node000001_Node000003" class="edge">
<title>Node1&#45;&gt;Node3</title>
<g id="a_edge2_Node000001_Node000003"><a xlink:title=" ">
<path fill="none" stroke="#63b8ff" d="M254.09,-140.33C240.44,-156.83 218.32,-181.27 195,-197.6 189.26,-201.62 182.48,-205.07 176.15,-207.85"/>
<polygon fill="#63b8ff" stroke="#63b8ff" points="256.85,-142.48 260.42,-132.51 251.41,-138.08 256.85,-142.48"/>
</a>
</g>
</g>
<!-- Node4 -->
<g id="Node000004" class="node">
<title>Node4</title>
<g id="a_Node000004"><a xlink:href="group__core__api.html#gada367c7b74bcd93238d109084d86fcf0" target="_top" xlink:title="Close a GPIO pin and reset it to a safe state.">
<polygon fill="white" stroke="#666666" points="182.5,-188.1 125.5,-188.1 125.5,-169.1 182.5,-169.1 182.5,-188.1"/>
<text text-anchor="middle" x="154" y="-176.1" font-family="Helvetica,sans-Serif" font-size="10.00">pinclose</text>
</a>
</g>
</g>
<!-- Node1&#45;&gt;Node4 -->
<g id="edge3_Node000001_Node000004" class="edge">
<title>Node1&#45;&gt;Node4</title>
<g id="a_edge3_Node000001_Node000004"><a xlink:title=" ">
<path fill="none" stroke="#63b8ff" d="M241.23,-137C227.5,-144.27 210.46,-153.1 195,-160.6 189.24,-163.39 182.96,-166.29 177.11,-168.92"/>
<polygon fill="#63b8ff" stroke="#63b8ff" points="242.96,-140.04 250.14,-132.26 239.67,-133.87 242.96,-140.04"/>
</a>
</g>
</g>
<!-- Node6 -->
<g id="Node000006" class="node">
<title>Node6</title>
<g id="a_Node000006"><a xlink:href="group__core__api.html#ga5d5e6f66c606a30568f2f5e83653fdb6" target="_top" xlink:title="Open a GPIO pin for use in the specified direction.">
<polygon fill="white" stroke="#666666" points="182,-151.1 126,-151.1 126,-132.1 182,-132.1 182,-151.1"/>
<text text-anchor="middle" x="154" y="-139.1" font-family="Helvetica,sans-Serif" font-size="10.00">pinopen</text>
</a>
</g>
</g>
<!-- Node1&#45;&gt;Node6 -->
<g id="edge5_Node000001_Node000006" class="edge">
<title>Node1&#45;&gt;Node6</title>
<g id="a_edge5_Node000001_Node000006"><a xlink:title=" ">
<path fill="none" stroke="#63b8ff" d="M221.03,-130.5C207.74,-132.73 193.73,-135.09 182.05,-137.05"/>
<polygon fill="#63b8ff" stroke="#63b8ff" points="221.72,-133.93 231,-128.82 220.56,-127.03 221.72,-133.93"/>
</a>
</g>
</g>
<!-- Node7 -->
<g id="Node000007" class="node">
<title>Node7</title>
<g id="a_Node000007"><a xlink:href="group__core__api.html#ga5df230aba0f71c75b14cc8498ae5cec6" target="_top" xlink:title="Configure the internal pull resistor for a GPIO pin.">
<polygon fill="white" stroke="#666666" points="179,-114.1 129,-114.1 129,-95.1 179,-95.1 179,-114.1"/>
<text text-anchor="middle" x="154" y="-102.1" font-family="Helvetica,sans-Serif" font-size="10.00">pinpull</text>
</a>
</g>
</g>
<!-- Node1&#45;&gt;Node7 -->
<g id="edge7_Node000001_Node000007" class="edge">
<title>Node1&#45;&gt;Node7</title>
<g id="a_edge7_Node000001_Node000007"><a xlink:title=" ">
<path fill="none" stroke="#63b8ff" d="M220.79,-115.08C206.5,-112.8 191.39,-110.4 179.26,-108.46"/>
<polygon fill="#63b8ff" stroke="#63b8ff" points="220.57,-118.59 231,-116.71 221.67,-111.68 220.57,-118.59"/>
</a>
</g>
</g>
<!-- Node8 -->
<g id="Node000008" class="node">
<title>Node8</title>
<g id="a_Node000008"><a xlink:href="group__core__api.html#gaa1c9a22bd9f995b5bd9520bf55761835" target="_top" xlink:title="Read the current logic level of a GPIO pin.">
<polygon fill="white" stroke="#666666" points="180.5,-40.1 127.5,-40.1 127.5,-21.1 180.5,-21.1 180.5,-40.1"/>
<text text-anchor="middle" x="154" y="-28.1" font-family="Helvetica,sans-Serif" font-size="10.00">pinread</text>
</a>
</g>
</g>
<!-- Node1&#45;&gt;Node8 -->
<g id="edge8_Node000001_Node000008" class="edge">
<title>Node1&#45;&gt;Node8</title>
<g id="a_edge8_Node000001_Node000008"><a xlink:title=" ">
<path fill="none" stroke="#63b8ff" d="M253.67,-104.67C239.95,-88.4 218,-64.59 195,-48.6 190.5,-45.47 185.36,-42.68 180.31,-40.28"/>
<polygon fill="#63b8ff" stroke="#63b8ff" points="251.33,-107.34 260.39,-112.83 256.74,-102.89 251.33,-107.34"/>
</a>
</g>
</g>
<!-- Node9 -->
<g id="Node000009" class="node">
<title>Node9</title>
<g id="a_Node000009"><a xlink:href="group__core__api.html#ga3fcd2e6e8ef98f3b9331de79dc1fc20d" target="_top" xlink:title="Toggle the output state of a GPIO pin (pinctrl backend).">
<polygon fill="white" stroke="#666666" points="69.5,-40.1 7.5,-40.1 7.5,-21.1 69.5,-21.1 69.5,-40.1"/>
<text text-anchor="middle" x="38.5" y="-28.1" font-family="Helvetica,sans-Serif" font-size="10.00">pintoggle</text>
</a>
</g>
</g>
<!-- Node1&#45;&gt;Node9 -->
<g id="edge10_Node000001_Node000009" class="edge">
<title>Node1&#45;&gt;Node9</title>
<g id="a_edge10_Node000001_Node000009"><a xlink:title=" ">
<path fill="none" stroke="#63b8ff" d="M261.79,-103.19C252.2,-76.9 231.04,-31.03 195,-11.6 151.19,12.02 90.55,-7.84 59.54,-21.08"/>
<polygon fill="#63b8ff" stroke="#63b8ff" points="258.54,-104.5 265.1,-112.82 265.16,-102.22 258.54,-104.5"/>
</a>
</g>
</g>
<!-- Node10 -->
<g id="Node000010" class="node">
<title>Node10</title>
<g id="a_Node000010"><a xlink:href="group__core__api.html#ga667ec854157d4f186d37073adf17c3d5" target="_top" xlink:title="Write a digital value (HIGH or LOW) to a GPIO output pin.">
<polygon fill="white" stroke="#666666" points="182,-77.1 126,-77.1 126,-58.1 182,-58.1 182,-77.1"/>
<text text-anchor="middle" x="154" y="-65.1" font-family="Helvetica,sans-Serif" font-size="10.00">pinwrite</text>
</a>
</g>
</g>
<!-- Node1&#45;&gt;Node10 -->
<g id="edge11_Node000001_Node000010" class="edge">
<title>Node1&#45;&gt;Node10</title>
<g id="a_edge11_Node000001_Node000010"><a xlink:title=" ">
<path fill="none" stroke="#63b8ff" d="M239.58,-108.46C226.09,-101.79 209.74,-93.73 195,-86.6 188.63,-83.52 181.68,-80.2 175.38,-77.21"/>
<polygon fill="#63b8ff" stroke="#63b8ff" points="238.31,-111.74 248.83,-113.05 241.42,-105.47 238.31,-111.74"/>
</a>
</g>
</g>
<!-- Node5 -->
<g id="Node000005" class="node">
<title>Node5</title>
<g id="a_Node000005"><a xlink:href="group__core__api.html#ga77202d82ecb9267f1007ca750a0d67cb" target="_top" xlink:title="Quick pin test: briefly pulses a pin HIGH then LOW.">
<polygon fill="white" stroke="#666666" points="77,-151.1 0,-151.1 0,-132.1 77,-132.1 77,-151.1"/>
<text text-anchor="middle" x="38.5" y="-139.1" font-family="Helvetica,sans-Serif" font-size="10.00">gpio_pintest</text>
</a>
</g>
</g>
<!-- Node4&#45;&gt;Node5 -->
<g id="edge4_Node000004_Node000005" class="edge">
<title>Node4&#45;&gt;Node5</title>
<g id="a_edge4_Node000004_Node000005"><a xlink:title=" ">
<path fill="none" stroke="#63b8ff" d="M115.63,-166.42C100.47,-161.47 83.21,-155.85 68.96,-151.2"/>
<polygon fill="#63b8ff" stroke="#63b8ff" points="114.64,-169.78 125.23,-169.55 116.81,-163.12 114.64,-169.78"/>
</a>
</g>
</g>
<!-- Node6&#45;&gt;Node5 -->
<g id="edge6_Node000006_Node000005" class="edge">
<title>Node6&#45;&gt;Node5</title>
<g id="a_edge6_Node000006_Node000005"><a xlink:title=" ">
<path fill="none" stroke="#63b8ff" d="M115.8,-141.6C103.42,-141.6 89.62,-141.6 77.19,-141.6"/>
<polygon fill="#63b8ff" stroke="#63b8ff" points="115.81,-145.1 125.81,-141.6 115.81,-138.1 115.81,-145.1"/>
</a>
</g>
</g>
<!-- Node8&#45;&gt;Node9 -->
<g id="edge9_Node000008_Node000009" class="edge">
<title>Node8&#45;&gt;Node9</title>
<g id="a_edge9_Node000008_Node000009"><a xlink:title=" ">
<path fill="none" stroke="#63b8ff" d="M117.1,-30.6C101.81,-30.6 84.17,-30.6 69.57,-30.6"/>
<polygon fill="#63b8ff" stroke="#63b8ff" points="117.25,-34.1 127.25,-30.6 117.25,-27.1 117.25,-34.1"/>
</a>
</g>
</g>
<!-- Node10&#45;&gt;Node5 -->
<g id="edge12_Node000010_Node000005" class="edge">
<title>Node10&#45;&gt;Node5</title>
<g id="a_edge12_Node000010_Node000005"><a xlink:title=" ">
<path fill="none" stroke="#63b8ff" d="M121.39,-81.88C118.52,-83.4 115.68,-84.98 113,-86.6 89.8,-100.6 65,-120.26 50.96,-131.89"/>
<polygon fill="#63b8ff" stroke="#63b8ff" points="123.2,-84.89 130.58,-77.29 120.07,-78.63 123.2,-84.89"/>
</a>
</g>
</g>
<!-- Node10&#45;&gt;Node9 -->
<g id="edge13_Node000010_Node000009" class="edge">
<title>Node10&#45;&gt;Node9</title>
<g id="a_edge13_Node000010_Node000009"><a xlink:title=" ">
<path fill="none" stroke="#63b8ff" d="M116.12,-55.58C100.8,-50.58 83.27,-44.87 68.85,-40.17"/>
<polygon fill="#63b8ff" stroke="#63b8ff" points="115.22,-58.97 125.81,-58.74 117.39,-52.31 115.22,-58.97"/>
</a>
</g>
</g>
</g>
</svg>
