<?xml version="1.0" encoding="UTF-8" standalone="no"?>
<!DOCTYPE svg PUBLIC "-//W3C//DTD SVG 1.1//EN"
 "http://www.w3.org/Graphics/SVG/1.1/DTD/svg11.dtd">
<!-- Generated by graphviz version 2.43.0 (0)
 -->
<!-- Title: gpio_pintest Pages: 1 -->
<svg width="208pt" height="175pt"
 viewBox="0.00 0.00 208.00 175.00" xmlns="http://www.w3.org/2000/svg" xmlns:xlink="http://www.w3.org/1999/xlink">
<g id="graph0" class="graph" transform="scale(1 1) rotate(0) translate(4 171)">
<title>gpio_pintest</title>
<!-- Node1 -->
<g id="Node000001" class="node">
<title>Node1</title>
<g id="a_Node000001"><a xlink:title="Quick pin test: briefly pulses a pin HIGH then LOW.">
<polygon fill="#999999" stroke="#666666" points="77,-93 0,-93 0,-74 77,-74 77,-93"/>
<text text-anchor="middle" x="38.5" y="-81" font-family="Helvetica,sans-Serif" font-size="10.00">gpio_pintest</text>
</a>
</g>
</g>
<!-- Node2 -->
<g id="Node000002" class="node">
<title>Node2</title>
<g id="a_Node000002"><a xlink:href="gpio__rpi5_8c.html#ac29239721da816fdd910b09545678264" target="_top" xlink:title="Validate that a pin number is within the RP1 range.">
<polygon fill="white" stroke="#666666" points="200,-167 113,-167 113,-148 200,-148 200,-167"/>
<text text-anchor="middle" x="156.5" y="-155" font-family="Helvetica,sans-Serif" font-size="10.00">gpio_valid_pin</text>
</a>
</g>
</g>
<!-- Node1&#45;&gt;Node2 -->
<g id="edge1_Node000001_Node000002" class="edge">
<title>Node1&#45;&gt;Node2</title>
<g id="a_edge1_Node000001_Node000002"><a xlink:title=" ">
<path fill="none" stroke="#63b8ff" d="M50.34,-93.16C64.16,-105.13 89.14,-125.65 113,-139.5 115.47,-140.93 118.07,-142.32 120.73,-143.63"/>
<polygon fill="#63b8ff" stroke="#63b8ff" points="119.28,-146.82 129.83,-147.85 122.22,-140.47 119.28,-146.82"/>
</a>
</g>
</g>
<!-- Node3 -->
<g id="Node000003" class="node">
<title>Node3</title>
<g id="a_Node000003"><a xlink:href="gpio__rpi5__pinctrl_8c.html#ac29239721da816fdd910b09545678264" target="_top" xlink:title="Validate that a pin index is within any known GPIO range.">
<polygon fill="white" stroke="#666666" points="200,-130 113,-130 113,-111 200,-111 200,-130"/>
<text text-anchor="middle" x="156.5" y="-118" font-family="Helvetica,sans-Serif" font-size="10.00">gpio_valid_pin</text>
</a>
</g>
</g>
<!-- Node1&#45;&gt;Node3 -->
<g id="edge2_Node000001_Node000003" class="edge">
<title>Node1&#45;&gt;Node3</title>
<g id="a_edge2_Node000001_Node000003"><a xlink:title=" ">
<path fill="none" stroke="#63b8ff" d="M69.37,-93.03C83.47,-97.52 100.49,-102.95 115.67,-107.8"/>
<polygon fill="#63b8ff" stroke="#63b8ff" points="114.73,-111.17 125.33,-110.88 116.86,-104.5 114.73,-111.17"/>
</a>
</g>
</g>
<!-- Node4 -->
<g id="Node000004" class="node">
<title>Node4</title>
<g id="a_Node000004"><a xlink:href="group__core__api.html#gada367c7b74bcd93238d109084d86fcf0" target="_top" xlink:title="Close a GPIO pin and reset it to a safe state (mmap backend).">
<polygon fill="white" stroke="#666666" points="185,-93 128,-93 128,-74 185,-74 185,-93"/>
<text text-anchor="middle" x="156.5" y="-81" font-family="Helvetica,sans-Serif" font-size="10.00">pinclose</text>
</a>
</g>
</g>
<!-- Node1&#45;&gt;Node4 -->
<g id="edge3_Node000001_Node000004" class="edge">
<title>Node1&#45;&gt;Node4</title>
<g id="a_edge3_Node000001_Node000004"><a xlink:title=" ">
<path fill="none" stroke="#63b8ff" d="M77.16,-83.5C90.21,-83.5 104.83,-83.5 117.88,-83.5"/>
<polygon fill="#63b8ff" stroke="#63b8ff" points="117.95,-87 127.95,-83.5 117.95,-80 117.95,-87"/>
</a>
</g>
</g>
<!-- Node5 -->
<g id="Node000005" class="node">
<title>Node5</title>
<g id="a_Node000005"><a xlink:href="group__core__api.html#ga5d5e6f66c606a30568f2f5e83653fdb6" target="_top" xlink:title="Open a GPIO pin in the specified direction (mmap backend).">
<polygon fill="white" stroke="#666666" points="184.5,-56 128.5,-56 128.5,-37 184.5,-37 184.5,-56"/>
<text text-anchor="middle" x="156.5" y="-44" font-family="Helvetica,sans-Serif" font-size="10.00">pinopen</text>
</a>
</g>
</g>
<!-- Node1&#45;&gt;Node5 -->
<g id="edge4_Node000001_Node000005" class="edge">
<title>Node1&#45;&gt;Node5</title>
<g id="a_edge4_Node000001_Node000005"><a xlink:title=" ">
<path fill="none" stroke="#63b8ff" d="M69.37,-73.97C84.24,-69.23 102.36,-63.45 118.14,-58.42"/>
<polygon fill="#63b8ff" stroke="#63b8ff" points="119.65,-61.61 128.11,-55.24 117.52,-54.94 119.65,-61.61"/>
</a>
</g>
</g>
<!-- Node6 -->
<g id="Node000006" class="node">
<title>Node6</title>
<g id="a_Node000006"><a xlink:href="group__core__api.html#ga667ec854157d4f186d37073adf17c3d5" target="_top" xlink:title="Write a digital value to a GPIO output pin (mmap backend).">
<polygon fill="white" stroke="#666666" points="184.5,-19 128.5,-19 128.5,0 184.5,0 184.5,-19"/>
<text text-anchor="middle" x="156.5" y="-7" font-family="Helvetica,sans-Serif" font-size="10.00">pinwrite</text>
</a>
</g>
</g>
<!-- Node1&#45;&gt;Node6 -->
<g id="edge5_Node000001_Node000006" class="edge">
<title>Node1&#45;&gt;Node6</title>
<g id="a_edge5_Node000001_Node000006"><a xlink:title=" ">
<path fill="none" stroke="#63b8ff" d="M50.9,-73.7C64.89,-61.98 89.64,-42.23 113,-28.5 116.02,-26.73 119.23,-25.01 122.49,-23.38"/>
<polygon fill="#63b8ff" stroke="#63b8ff" points="124.11,-26.49 131.65,-19.05 121.11,-20.16 124.11,-26.49"/>
</a>
</g>
</g>
</g>
</svg>
