<?xml version="1.0" encoding="UTF-8" standalone="no"?>
<!DOCTYPE svg PUBLIC "-//W3C//DTD SVG 1.1//EN"
 "http://www.w3.org/Graphics/SVG/1.1/DTD/svg11.dtd">
<!-- Generated by graphviz version 2.43.0 (0)
 -->
<!-- Title: pinread Pages: 1 -->
<svg width="184pt" height="138pt"
 viewBox="0.00 0.00 184.00 138.00" xmlns="http://www.w3.org/2000/svg" xmlns:xlink="http://www.w3.org/1999/xlink">

<svg id="main" version="1.1" xmlns="http://www.w3.org/2000/svg" xmlns:xlink="http://www.w3.org/1999/xlink" xml:space="preserve" onload="init(evt)">
<style type="text/css"><![CDATA[
.node, .edge {opacity: 0.7;}
.node.selected, .edge.selected {opacity: 1;}
.edge:hover path { stroke: red; }
.edge:hover polygon { stroke: red; fill: red; }
]]></style>
<script type="application/ecmascript" xlink:href="svg.min.js"/>
<svg id="graph" class="graph">
<g id="graph0" class="graph" transform="scale(1 1) rotate(0) translate(4 134)">
<title>pinread</title>
<!-- Node1 -->
<g id="Node000001" class="node">
<title>Node1</title>
<g id="a_Node000001"><a xlink:title="Read the current logic level of a GPIO pin.">
<polygon fill="#999999" stroke="#666666" points="53,-74 0,-74 0,-55 53,-55 53,-74"/>
<text text-anchor="middle" x="26.5" y="-62" font-family="Helvetica,sans-Serif" font-size="10.00">pinread</text>
</a>
</g>
</g>
<!-- Node2 -->
<g id="Node000002" class="node">
<title>Node2</title>
<g id="a_Node000002"><a xlink:href="gpio__rpi5_8c.html#ac29239721da816fdd910b09545678264" target="_top" xlink:title="Validate that a pin number is within the RP1 range.">
<polygon fill="white" stroke="#666666" points="176,-130 89,-130 89,-111 176,-111 176,-130"/>
<text text-anchor="middle" x="132.5" y="-118" font-family="Helvetica,sans-Serif" font-size="10.00">gpio_valid_pin</text>
</a>
</g>
</g>
<!-- Node1&#45;&gt;Node2 -->
<g id="edge1_Node000001_Node000002" class="edge">
<title>Node1&#45;&gt;Node2</title>
<g id="a_edge1_Node000001_Node000002"><a xlink:title=" ">
<path fill="none" stroke="#63b8ff" d="M41.8,-74.2C54.04,-82.3 72.28,-93.86 89,-102.5 91.76,-103.93 94.66,-105.33 97.59,-106.69"/>
<polygon fill="#63b8ff" stroke="#63b8ff" points="96.37,-109.98 106.93,-110.85 99.22,-103.59 96.37,-109.98"/>
</a>
</g>
</g>
<!-- Node3 -->
<g id="Node000003" class="node">
<title>Node3</title>
<g id="a_Node000003"><a xlink:href="gpio__rpi5__pinctrl_8c.html#ac29239721da816fdd910b09545678264" target="_top" xlink:title="Validate that a pin index is within any known GPIO range.">
<polygon fill="white" stroke="#666666" points="176,-93 89,-93 89,-74 176,-74 176,-93"/>
<text text-anchor="middle" x="132.5" y="-81" font-family="Helvetica,sans-Serif" font-size="10.00">gpio_valid_pin</text>
</a>
</g>
</g>
<!-- Node1&#45;&gt;Node3 -->
<g id="edge2_Node000001_Node000003" class="edge">
<title>Node1&#45;&gt;Node3</title>
<g id="a_edge2_Node000001_Node000003"><a xlink:title=" ">
<path fill="none" stroke="#63b8ff" d="M53.21,-69.2C60.99,-70.62 69.83,-72.23 78.71,-73.86"/>
<polygon fill="#63b8ff" stroke="#63b8ff" points="78.22,-77.32 88.69,-75.68 79.48,-70.44 78.22,-77.32"/>
</a>
</g>
</g>
<!-- Node4 -->
<g id="Node000004" class="node">
<title>Node4</title>
<g id="a_Node000004"><a xlink:href="gpio__rpi5_8c.html#a47014639910a37eb40b480237febc9cf" target="_top" xlink:title="Resolve a GPIO number (0–53) into its bank&#45;specific parameters.">
<polygon fill="white" stroke="#666666" points="170.5,-56 94.5,-56 94.5,-37 170.5,-37 170.5,-56"/>
<text text-anchor="middle" x="132.5" y="-44" font-family="Helvetica,sans-Serif" font-size="10.00">pin_to_bank</text>
</a>
</g>
</g>
<!-- Node1&#45;&gt;Node4 -->
<g id="edge3_Node000001_Node000004" class="edge">
<title>Node1&#45;&gt;Node4</title>
<g id="a_edge3_Node000001_Node000004"><a xlink:title=" ">
<path fill="none" stroke="#63b8ff" d="M53.21,-60.05C62.6,-58.43 73.54,-56.53 84.22,-54.68"/>
<polygon fill="#63b8ff" stroke="#63b8ff" points="85.05,-58.09 94.31,-52.94 83.86,-51.19 85.05,-58.09"/>
</a>
</g>
</g>
<!-- Node5 -->
<g id="Node000005" class="node">
<title>Node5</title>
<g id="a_Node000005"><a xlink:href="gpio__rpi5_8c.html#a6ddca9e64247d9b8a877e9b70ec52bfe" target="_top" xlink:title="Read a 32&#45;bit hardware register.">
<polygon fill="white" stroke="#666666" points="162,-19 103,-19 103,0 162,0 162,-19"/>
<text text-anchor="middle" x="132.5" y="-7" font-family="Helvetica,sans-Serif" font-size="10.00">reg_read</text>
</a>
</g>
</g>
<!-- Node1&#45;&gt;Node5 -->
<g id="edge4_Node000001_Node000005" class="edge">
<title>Node1&#45;&gt;Node5</title>
<g id="a_edge4_Node000001_Node000005"><a xlink:title=" ">
<path fill="none" stroke="#63b8ff" d="M42.91,-54.85C55.19,-47.31 72.94,-36.76 89,-28.5 92.36,-26.77 95.91,-25.04 99.47,-23.37"/>
<polygon fill="#63b8ff" stroke="#63b8ff" points="101.15,-26.45 108.79,-19.11 98.24,-20.08 101.15,-26.45"/>
</a>
</g>
</g>
</g>
</svg>
</svg>

<style type='text/css'>
<![CDATA[
[data-mouse-over-selected='false'] { opacity: 0.7; }
[data-mouse-over-selected='true']  { opacity: 1.0; }
]]>
</style>
<script type="application/ecmascript"><![CDATA[
document.addEventListener('DOMContentLoaded', (event) => {
  highlightEdges();
  highlightAdjacentNodes();
});
]]></script>
</svg>
