<?xml version="1.0" encoding="UTF-8" standalone="no"?>
<!DOCTYPE svg PUBLIC "-//W3C//DTD SVG 1.1//EN"
 "http://www.w3.org/Graphics/SVG/1.1/DTD/svg11.dtd">
<!-- Generated by graphviz version 2.43.0 (0)
 -->
<!-- Title: pinclose Pages: 1 -->
<svg width="188pt" height="175pt"
 viewBox="0.00 0.00 188.00 175.00" xmlns="http://www.w3.org/2000/svg" xmlns:xlink="http://www.w3.org/1999/xlink">

<svg id="main" version="1.1" xmlns="http://www.w3.org/2000/svg" xmlns:xlink="http://www.w3.org/1999/xlink" xml:space="preserve" onload="init(evt)">
<style type="text/css"><![CDATA[
.node, .edge {opacity: 0.7;}
.node.selected, .edge.selected {opacity: 1;}
.edge:hover path { stroke: red; }
.edge:hover polygon { stroke: red; fill: red; }
]]></style>
<script type="application/ecmascript" xlink:href="svg.min.js"/>
<svg id="graph" class="graph">
<g id="graph0" class="graph" transform="scale(1 1) rotate(0) translate(4 171)">
<title>pinclose</title>
<!-- Node1 -->
<g id="Node000001" class="node">
<title>Node1</title>
<g id="a_Node000001"><a xlink:title="Close a GPIO pin and reset it to a safe state.">
<polygon fill="#999999" stroke="#666666" points="57,-93 0,-93 0,-74 57,-74 57,-93"/>
<text text-anchor="middle" x="28.5" y="-81" font-family="Helvetica,sans-Serif" font-size="10.00">pinclose</text>
</a>
</g>
</g>
<!-- Node2 -->
<g id="Node000002" class="node">
<title>Node2</title>
<g id="a_Node000002"><a xlink:href="gpio__rpi5_8c.html#ac29239721da816fdd910b09545678264" target="_top" xlink:title="Validate that a pin number is within the RP1 range.">
<polygon fill="white" stroke="#666666" points="180,-167 93,-167 93,-148 180,-148 180,-167"/>
<text text-anchor="middle" x="136.5" y="-155" font-family="Helvetica,sans-Serif" font-size="10.00">gpio_valid_pin</text>
</a>
</g>
</g>
<!-- Node1&#45;&gt;Node2 -->
<g id="edge1_Node000001_Node000002" class="edge">
<title>Node1&#45;&gt;Node2</title>
<g id="a_edge1_Node000001_Node000002"><a xlink:title=" ">
<path fill="none" stroke="#63b8ff" d="M38.61,-93.28C50.29,-105.38 71.6,-126.03 93,-139.5 95.27,-140.93 97.68,-142.3 100.15,-143.59"/>
<polygon fill="#63b8ff" stroke="#63b8ff" points="98.68,-146.76 109.21,-147.93 101.71,-140.45 98.68,-146.76"/>
</a>
</g>
</g>
<!-- Node3 -->
<g id="Node000003" class="node">
<title>Node3</title>
<g id="a_Node000003"><a xlink:href="gpio__rpi5__pinctrl_8c.html#ac29239721da816fdd910b09545678264" target="_top" xlink:title="Validate that a pin index is within any known GPIO range.">
<polygon fill="white" stroke="#666666" points="180,-130 93,-130 93,-111 180,-111 180,-130"/>
<text text-anchor="middle" x="136.5" y="-118" font-family="Helvetica,sans-Serif" font-size="10.00">gpio_valid_pin</text>
</a>
</g>
</g>
<!-- Node1&#45;&gt;Node3 -->
<g id="edge2_Node000001_Node000003" class="edge">
<title>Node1&#45;&gt;Node3</title>
<g id="a_edge2_Node000001_Node000003"><a xlink:title=" ">
<path fill="none" stroke="#63b8ff" d="M56.8,-93.03C69.43,-97.44 84.64,-102.75 98.31,-107.52"/>
<polygon fill="#63b8ff" stroke="#63b8ff" points="97.33,-110.88 107.93,-110.88 99.64,-104.28 97.33,-110.88"/>
</a>
</g>
</g>
<!-- Node4 -->
<g id="Node000004" class="node">
<title>Node4</title>
<g id="a_Node000004"><a xlink:href="gpio__rpi5_8c.html#a47014639910a37eb40b480237febc9cf" target="_top" xlink:title="Resolve a GPIO number (0–53) into its bank&#45;specific parameters.">
<polygon fill="white" stroke="#666666" points="174.5,-93 98.5,-93 98.5,-74 174.5,-74 174.5,-93"/>
<text text-anchor="middle" x="136.5" y="-81" font-family="Helvetica,sans-Serif" font-size="10.00">pin_to_bank</text>
</a>
</g>
</g>
<!-- Node1&#45;&gt;Node4 -->
<g id="edge3_Node000001_Node000004" class="edge">
<title>Node1&#45;&gt;Node4</title>
<g id="a_edge3_Node000001_Node000004"><a xlink:title=" ">
<path fill="none" stroke="#63b8ff" d="M57.07,-83.5C66.65,-83.5 77.68,-83.5 88.38,-83.5"/>
<polygon fill="#63b8ff" stroke="#63b8ff" points="88.49,-87 98.49,-83.5 88.49,-80 88.49,-87"/>
</a>
</g>
</g>
<!-- Node5 -->
<g id="Node000005" class="node">
<title>Node5</title>
<g id="a_Node000005"><a xlink:href="gpio__rpi5_8c.html#a6ddca9e64247d9b8a877e9b70ec52bfe" target="_top" xlink:title="Read a 32&#45;bit hardware register.">
<polygon fill="white" stroke="#666666" points="166,-56 107,-56 107,-37 166,-37 166,-56"/>
<text text-anchor="middle" x="136.5" y="-44" font-family="Helvetica,sans-Serif" font-size="10.00">reg_read</text>
</a>
</g>
</g>
<!-- Node1&#45;&gt;Node5 -->
<g id="edge4_Node000001_Node000005" class="edge">
<title>Node1&#45;&gt;Node5</title>
<g id="a_edge4_Node000001_Node000005"><a xlink:title=" ">
<path fill="none" stroke="#63b8ff" d="M56.8,-73.97C69.43,-69.56 84.64,-64.25 98.31,-59.48"/>
<polygon fill="#63b8ff" stroke="#63b8ff" points="99.64,-62.72 107.93,-56.12 97.33,-56.12 99.64,-62.72"/>
</a>
</g>
</g>
<!-- Node6 -->
<g id="Node000006" class="node">
<title>Node6</title>
<g id="a_Node000006"><a xlink:href="gpio__rpi5_8c.html#a4c01897c77fc1077daf91b31480ded50" target="_top" xlink:title="Write a 32&#45;bit value to a hardware register.">
<polygon fill="white" stroke="#666666" points="167.5,-19 105.5,-19 105.5,0 167.5,0 167.5,-19"/>
<text text-anchor="middle" x="136.5" y="-7" font-family="Helvetica,sans-Serif" font-size="10.00">reg_write</text>
</a>
</g>
</g>
<!-- Node1&#45;&gt;Node6 -->
<g id="edge5_Node000001_Node000006" class="edge">
<title>Node1&#45;&gt;Node6</title>
<g id="a_edge5_Node000001_Node000006"><a xlink:title=" ">
<path fill="none" stroke="#63b8ff" d="M38.69,-73.97C50.45,-62.17 71.84,-41.98 93,-28.5 95.64,-26.82 98.46,-25.21 101.33,-23.69"/>
<polygon fill="#63b8ff" stroke="#63b8ff" points="103.14,-26.7 110.59,-19.17 100.07,-20.41 103.14,-26.7"/>
</a>
</g>
</g>
</g>
</svg>
</svg>

<style type='text/css'>
<![CDATA[
[data-mouse-over-selected='false'] { opacity: 0.7; }
[data-mouse-over-selected='true']  { opacity: 1.0; }
]]>
</style>
<script type="application/ecmascript"><![CDATA[
document.addEventListener('DOMContentLoaded', (event) => {
  highlightEdges();
  highlightAdjacentNodes();
});
]]></script>
</svg>
