<?xml version="1.0" encoding="UTF-8" standalone="no"?>
<!DOCTYPE svg PUBLIC "-//W3C//DTD SVG 1.1//EN"
 "http://www.w3.org/Graphics/SVG/1.1/DTD/svg11.dtd">
<!-- Generated by graphviz version 2.43.0 (0)
 -->
<!-- Title: pinpull Pages: 1 -->
<svg width="181pt" height="175pt"
 viewBox="0.00 0.00 181.00 175.00" xmlns="http://www.w3.org/2000/svg" xmlns:xlink="http://www.w3.org/1999/xlink">

<svg id="main" version="1.1" xmlns="http://www.w3.org/2000/svg" xmlns:xlink="http://www.w3.org/1999/xlink" xml:space="preserve" onload="init(evt)">
<style type="text/css"><![CDATA[
.node, .edge {opacity: 0.7;}
.node.selected, .edge.selected {opacity: 1;}
.edge:hover path { stroke: red; }
.edge:hover polygon { stroke: red; fill: red; }
]]></style>
<script type="application/ecmascript" xlink:href="svg.min.js"/>
<svg id="graph" class="graph">
<g id="graph0" class="graph" transform="scale(1 1) rotate(0) translate(4 171)">
<title>pinpull</title>
<!-- Node1 -->
<g id="Node000001" class="node">
<title>Node1</title>
<g id="a_Node000001"><a xlink:title="Configure the internal pull resistor for a GPIO pin.">
<polygon fill="#999999" stroke="#666666" points="50,-93 0,-93 0,-74 50,-74 50,-93"/>
<text text-anchor="middle" x="25" y="-81" font-family="Helvetica,sans-Serif" font-size="10.00">pinpull</text>
</a>
</g>
</g>
<!-- Node2 -->
<g id="Node000002" class="node">
<title>Node2</title>
<g id="a_Node000002"><a xlink:href="gpio__rpi5_8c.html#ac29239721da816fdd910b09545678264" target="_top" xlink:title="Validate that a pin number is within the RP1 range.">
<polygon fill="white" stroke="#666666" points="173,-167 86,-167 86,-148 173,-148 173,-167"/>
<text text-anchor="middle" x="129.5" y="-155" font-family="Helvetica,sans-Serif" font-size="10.00">gpio_valid_pin</text>
</a>
</g>
</g>
<!-- Node1&#45;&gt;Node2 -->
<g id="edge1_Node000001_Node000002" class="edge">
<title>Node1&#45;&gt;Node2</title>
<g id="a_edge1_Node000001_Node000002"><a xlink:title=" ">
<path fill="none" stroke="#63b8ff" d="M34.5,-93.32C45.42,-105.46 65.44,-126.16 86,-139.5 88.12,-140.87 90.36,-142.18 92.66,-143.42"/>
<polygon fill="#63b8ff" stroke="#63b8ff" points="91.17,-146.59 101.69,-147.84 94.25,-140.3 91.17,-146.59"/>
</a>
</g>
</g>
<!-- Node3 -->
<g id="Node000003" class="node">
<title>Node3</title>
<g id="a_Node000003"><a xlink:href="gpio__rpi5__pinctrl_8c.html#ac29239721da816fdd910b09545678264" target="_top" xlink:title="Validate that a pin index is within any known GPIO range.">
<polygon fill="white" stroke="#666666" points="173,-130 86,-130 86,-111 173,-111 173,-130"/>
<text text-anchor="middle" x="129.5" y="-118" font-family="Helvetica,sans-Serif" font-size="10.00">gpio_valid_pin</text>
</a>
</g>
</g>
<!-- Node1&#45;&gt;Node3 -->
<g id="edge2_Node000001_Node000003" class="edge">
<title>Node1&#45;&gt;Node3</title>
<g id="a_edge2_Node000001_Node000003"><a xlink:title=" ">
<path fill="none" stroke="#63b8ff" d="M50.03,-92.17C62.72,-96.76 78.55,-102.47 92.66,-107.56"/>
<polygon fill="#63b8ff" stroke="#63b8ff" points="91.51,-110.87 102.1,-110.97 93.88,-104.28 91.51,-110.87"/>
</a>
</g>
</g>
<!-- Node4 -->
<g id="Node000004" class="node">
<title>Node4</title>
<g id="a_Node000004"><a xlink:href="gpio__rpi5_8c.html#a47014639910a37eb40b480237febc9cf" target="_top" xlink:title="Resolve a GPIO number (0–53) into its bank&#45;specific parameters.">
<polygon fill="white" stroke="#666666" points="167.5,-93 91.5,-93 91.5,-74 167.5,-74 167.5,-93"/>
<text text-anchor="middle" x="129.5" y="-81" font-family="Helvetica,sans-Serif" font-size="10.00">pin_to_bank</text>
</a>
</g>
</g>
<!-- Node1&#45;&gt;Node4 -->
<g id="edge3_Node000001_Node000004" class="edge">
<title>Node1&#45;&gt;Node4</title>
<g id="a_edge3_Node000001_Node000004"><a xlink:title=" ">
<path fill="none" stroke="#63b8ff" d="M50.03,-83.5C59.36,-83.5 70.38,-83.5 81.17,-83.5"/>
<polygon fill="#63b8ff" stroke="#63b8ff" points="81.38,-87 91.38,-83.5 81.38,-80 81.38,-87"/>
</a>
</g>
</g>
<!-- Node5 -->
<g id="Node000005" class="node">
<title>Node5</title>
<g id="a_Node000005"><a xlink:href="gpio__rpi5_8c.html#a6ddca9e64247d9b8a877e9b70ec52bfe" target="_top" xlink:title="Read a 32&#45;bit hardware register.">
<polygon fill="white" stroke="#666666" points="159,-56 100,-56 100,-37 159,-37 159,-56"/>
<text text-anchor="middle" x="129.5" y="-44" font-family="Helvetica,sans-Serif" font-size="10.00">reg_read</text>
</a>
</g>
</g>
<!-- Node1&#45;&gt;Node5 -->
<g id="edge4_Node000001_Node000005" class="edge">
<title>Node1&#45;&gt;Node5</title>
<g id="a_edge4_Node000001_Node000005"><a xlink:title=" ">
<path fill="none" stroke="#63b8ff" d="M50.03,-74.83C62.72,-70.24 78.55,-64.53 92.66,-59.44"/>
<polygon fill="#63b8ff" stroke="#63b8ff" points="93.88,-62.72 102.1,-56.03 91.51,-56.13 93.88,-62.72"/>
</a>
</g>
</g>
<!-- Node6 -->
<g id="Node000006" class="node">
<title>Node6</title>
<g id="a_Node000006"><a xlink:href="gpio__rpi5_8c.html#a4c01897c77fc1077daf91b31480ded50" target="_top" xlink:title="Write a 32&#45;bit value to a hardware register.">
<polygon fill="white" stroke="#666666" points="160.5,-19 98.5,-19 98.5,0 160.5,0 160.5,-19"/>
<text text-anchor="middle" x="129.5" y="-7" font-family="Helvetica,sans-Serif" font-size="10.00">reg_write</text>
</a>
</g>
</g>
<!-- Node1&#45;&gt;Node6 -->
<g id="edge5_Node000001_Node000006" class="edge">
<title>Node1&#45;&gt;Node6</title>
<g id="a_edge5_Node000001_Node000006"><a xlink:title=" ">
<path fill="none" stroke="#63b8ff" d="M34.58,-73.93C45.58,-62.08 65.69,-41.84 86,-28.5 88.62,-26.78 91.42,-25.15 94.28,-23.61"/>
<polygon fill="#63b8ff" stroke="#63b8ff" points="96.1,-26.62 103.52,-19.06 93,-20.34 96.1,-26.62"/>
</a>
</g>
</g>
</g>
</svg>
</svg>

<style type='text/css'>
<![CDATA[
[data-mouse-over-selected='false'] { opacity: 0.7; }
[data-mouse-over-selected='true']  { opacity: 1.0; }
]]>
</style>
<script type="application/ecmascript"><![CDATA[
document.addEventListener('DOMContentLoaded', (event) => {
  highlightEdges();
  highlightAdjacentNodes();
});
]]></script>
</svg>
