<?xml version="1.0" encoding="UTF-8" standalone="no"?>
<!DOCTYPE svg PUBLIC "-//W3C//DTD SVG 1.1//EN"
 "http://www.w3.org/Graphics/SVG/1.1/DTD/svg11.dtd">
<!-- Generated by graphviz version 2.43.0 (0)
 -->
<!-- Title: pin_set_drive Pages: 1 -->
<svg width="213pt" height="138pt"
 viewBox="0.00 0.00 213.00 138.00" xmlns="http://www.w3.org/2000/svg" xmlns:xlink="http://www.w3.org/1999/xlink">
<g id="graph0" class="graph" transform="scale(1 1) rotate(0) translate(4 134)">
<title>pin_set_drive</title>
<!-- Node1 -->
<g id="Node000001" class="node">
<title>Node1</title>
<g id="a_Node000001"><a xlink:title="Set the output drive strength for a GPIO pin.">
<polygon fill="#999999" stroke="#666666" points="82,-74 0,-74 0,-55 82,-55 82,-74"/>
<text text-anchor="middle" x="41" y="-62" font-family="Helvetica,sans-Serif" font-size="10.00">pin_set_drive</text>
</a>
</g>
</g>
<!-- Node2 -->
<g id="Node000002" class="node">
<title>Node2</title>
<g id="a_Node000002"><a xlink:href="gpio__rpi5_8c.html#ac29239721da816fdd910b09545678264" target="_top" xlink:title="Validate that a pin number is within the RP1 range.">
<polygon fill="white" stroke="#666666" points="205,-130 118,-130 118,-111 205,-111 205,-130"/>
<text text-anchor="middle" x="161.5" y="-118" font-family="Helvetica,sans-Serif" font-size="10.00">gpio_valid_pin</text>
</a>
</g>
</g>
<!-- Node1&#45;&gt;Node2 -->
<g id="edge1_Node000001_Node000002" class="edge">
<title>Node1&#45;&gt;Node2</title>
<g id="a_edge1_Node000001_Node000002"><a xlink:title=" ">
<path fill="none" stroke="#63b8ff" d="M60.27,-74.04C75.57,-81.93 98.04,-93.29 118,-102.5 121.15,-103.95 124.45,-105.43 127.76,-106.88"/>
<polygon fill="#63b8ff" stroke="#63b8ff" points="126.43,-110.12 137,-110.86 129.2,-103.69 126.43,-110.12"/>
</a>
</g>
</g>
<!-- Node3 -->
<g id="Node000003" class="node">
<title>Node3</title>
<g id="a_Node000003"><a xlink:href="gpio__rpi5_8c.html#a47014639910a37eb40b480237febc9cf" target="_top" xlink:title="Resolve a GPIO number (0–53) into its bank&#45;specific parameters.">
<polygon fill="white" stroke="#666666" points="199.5,-93 123.5,-93 123.5,-74 199.5,-74 199.5,-93"/>
<text text-anchor="middle" x="161.5" y="-81" font-family="Helvetica,sans-Serif" font-size="10.00">pin_to_bank</text>
</a>
</g>
</g>
<!-- Node1&#45;&gt;Node3 -->
<g id="edge2_Node000001_Node000003" class="edge">
<title>Node1&#45;&gt;Node3</title>
<g id="a_edge2_Node000001_Node000003"><a xlink:title=" ">
<path fill="none" stroke="#63b8ff" d="M82.12,-70.93C92.09,-72.53 102.87,-74.26 113.15,-75.91"/>
<polygon fill="#63b8ff" stroke="#63b8ff" points="112.79,-79.4 123.22,-77.52 113.9,-72.48 112.79,-79.4"/>
</a>
</g>
</g>
<!-- Node4 -->
<g id="Node000004" class="node">
<title>Node4</title>
<g id="a_Node000004"><a xlink:href="gpio__rpi5_8c.html#a6ddca9e64247d9b8a877e9b70ec52bfe" target="_top" xlink:title="Read a 32&#45;bit hardware register.">
<polygon fill="white" stroke="#666666" points="191,-56 132,-56 132,-37 191,-37 191,-56"/>
<text text-anchor="middle" x="161.5" y="-44" font-family="Helvetica,sans-Serif" font-size="10.00">reg_read</text>
</a>
</g>
</g>
<!-- Node1&#45;&gt;Node4 -->
<g id="edge3_Node000001_Node000004" class="edge">
<title>Node1&#45;&gt;Node4</title>
<g id="a_edge3_Node000001_Node000004"><a xlink:title=" ">
<path fill="none" stroke="#63b8ff" d="M82.12,-58.41C94.81,-56.48 108.82,-54.35 121.44,-52.43"/>
<polygon fill="#63b8ff" stroke="#63b8ff" points="122.29,-55.84 131.65,-50.88 121.24,-48.92 122.29,-55.84"/>
</a>
</g>
</g>
<!-- Node5 -->
<g id="Node000005" class="node">
<title>Node5</title>
<g id="a_Node000005"><a xlink:href="gpio__rpi5_8c.html#a4c01897c77fc1077daf91b31480ded50" target="_top" xlink:title="Write a 32&#45;bit value to a hardware register.">
<polygon fill="white" stroke="#666666" points="192.5,-19 130.5,-19 130.5,0 192.5,0 192.5,-19"/>
<text text-anchor="middle" x="161.5" y="-7" font-family="Helvetica,sans-Serif" font-size="10.00">reg_write</text>
</a>
</g>
</g>
<!-- Node1&#45;&gt;Node5 -->
<g id="edge4_Node000001_Node000005" class="edge">
<title>Node1&#45;&gt;Node5</title>
<g id="a_edge4_Node000001_Node000005"><a xlink:title=" ">
<path fill="none" stroke="#63b8ff" d="M61.95,-54.91C77.24,-47.58 98.9,-37.29 118,-28.5 121.69,-26.8 125.58,-25.03 129.43,-23.29"/>
<polygon fill="#63b8ff" stroke="#63b8ff" points="131.15,-26.36 138.84,-19.07 128.28,-19.97 131.15,-26.36"/>
</a>
</g>
</g>
</g>
</svg>
