<?xml version="1.0" encoding="UTF-8" standalone="no"?>
<!DOCTYPE svg PUBLIC "-//W3C//DTD SVG 1.1//EN"
 "http://www.w3.org/Graphics/SVG/1.1/DTD/svg11.dtd">
<!-- Generated by graphviz version 2.43.0 (0)
 -->
<!-- Title: pintoggle Pages: 1 -->
<svg width="285pt" height="176pt"
 viewBox="0.00 0.00 285.00 176.00" xmlns="http://www.w3.org/2000/svg" xmlns:xlink="http://www.w3.org/1999/xlink">

<svg id="main" version="1.1" xmlns="http://www.w3.org/2000/svg" xmlns:xlink="http://www.w3.org/1999/xlink" xml:space="preserve" onload="init(evt)">
<style type="text/css"><![CDATA[
.node, .edge {opacity: 0.7;}
.node.selected, .edge.selected {opacity: 1;}
.edge:hover path { stroke: red; }
.edge:hover polygon { stroke: red; fill: red; }
]]></style>
<script type="application/ecmascript" xlink:href="svg.min.js"/>
<svg id="graph" class="graph">
<g id="graph0" class="graph" transform="scale(1 1) rotate(0) translate(4 172)">
<title>pintoggle</title>
<!-- Node1 -->
<g id="Node000001" class="node">
<title>Node1</title>
<g id="a_Node000001"><a xlink:title="Toggle the output state of a GPIO pin.">
<polygon fill="#999999" stroke="#666666" points="62,-94 0,-94 0,-75 62,-75 62,-94"/>
<text text-anchor="middle" x="31" y="-82" font-family="Helvetica,sans-Serif" font-size="10.00">pintoggle</text>
</a>
</g>
</g>
<!-- Node2 -->
<g id="Node000002" class="node">
<title>Node2</title>
<g id="a_Node000002"><a xlink:href="gpio__rpi5_8c.html#ac29239721da816fdd910b09545678264" target="_top" xlink:title="Validate that a pin number is within the RP1 range.">
<polygon fill="white" stroke="#666666" points="277,-57 190,-57 190,-38 277,-38 277,-57"/>
<text text-anchor="middle" x="233.5" y="-45" font-family="Helvetica,sans-Serif" font-size="10.00">gpio_valid_pin</text>
</a>
</g>
</g>
<!-- Node1&#45;&gt;Node2 -->
<g id="edge1_Node000001_Node000002" class="edge">
<title>Node1&#45;&gt;Node2</title>
<g id="a_edge1_Node000001_Node000002"><a xlink:title=" ">
<path fill="none" stroke="#63b8ff" d="M61.66,-74.95C72.95,-71.59 85.98,-68.02 98,-65.5 124.75,-59.89 154.88,-55.67 179.83,-52.73"/>
<polygon fill="#63b8ff" stroke="#63b8ff" points="180.29,-56.2 189.82,-51.59 179.49,-49.25 180.29,-56.2"/>
</a>
</g>
</g>
<!-- Node3 -->
<g id="Node000003" class="node">
<title>Node3</title>
<g id="a_Node000003"><a xlink:href="gpio__rpi5_8c.html#a47014639910a37eb40b480237febc9cf" target="_top" xlink:title="Resolve a GPIO number (0–53) into its bank&#45;specific parameters.">
<polygon fill="white" stroke="#666666" points="271.5,-168 195.5,-168 195.5,-149 271.5,-149 271.5,-168"/>
<text text-anchor="middle" x="233.5" y="-156" font-family="Helvetica,sans-Serif" font-size="10.00">pin_to_bank</text>
</a>
</g>
</g>
<!-- Node1&#45;&gt;Node3 -->
<g id="edge2_Node000001_Node000003" class="edge">
<title>Node1&#45;&gt;Node3</title>
<g id="a_edge2_Node000001_Node000003"><a xlink:title=" ">
<path fill="none" stroke="#63b8ff" d="M40.23,-94.34C51.7,-107.32 73.83,-129.76 98,-140.5 125.27,-152.62 158.49,-157.16 185.09,-158.64"/>
<polygon fill="#63b8ff" stroke="#63b8ff" points="185.16,-162.15 195.3,-159.08 185.46,-155.16 185.16,-162.15"/>
</a>
</g>
</g>
<!-- Node4 -->
<g id="Node000004" class="node">
<title>Node4</title>
<g id="a_Node000004"><a xlink:href="group__core__api.html#gaa1c9a22bd9f995b5bd9520bf55761835" target="_top" xlink:title="Read the current logic level of a GPIO pin (pinctrl backend).">
<polygon fill="white" stroke="#666666" points="152.5,-131 99.5,-131 99.5,-112 152.5,-112 152.5,-131"/>
<text text-anchor="middle" x="126" y="-119" font-family="Helvetica,sans-Serif" font-size="10.00">pinread</text>
</a>
</g>
</g>
<!-- Node1&#45;&gt;Node4 -->
<g id="edge3_Node000001_Node000004" class="edge">
<title>Node1&#45;&gt;Node4</title>
<g id="a_edge3_Node000001_Node000004"><a xlink:title=" ">
<path fill="none" stroke="#63b8ff" d="M55.95,-94.03C66.71,-98.31 79.6,-103.44 91.32,-108.1"/>
<polygon fill="#63b8ff" stroke="#63b8ff" points="90.22,-111.43 100.81,-111.88 92.81,-104.93 90.22,-111.43"/>
</a>
</g>
</g>
<!-- Node7 -->
<g id="Node000007" class="node">
<title>Node7</title>
<g id="a_Node000007"><a xlink:href="group__core__api.html#ga667ec854157d4f186d37073adf17c3d5" target="_top" xlink:title="Write a digital value to a GPIO pin (pinctrl backend).">
<polygon fill="white" stroke="#666666" points="154,-94 98,-94 98,-75 154,-75 154,-94"/>
<text text-anchor="middle" x="126" y="-82" font-family="Helvetica,sans-Serif" font-size="10.00">pinwrite</text>
</a>
</g>
</g>
<!-- Node1&#45;&gt;Node7 -->
<g id="edge8_Node000001_Node000007" class="edge">
<title>Node1&#45;&gt;Node7</title>
<g id="a_edge8_Node000001_Node000007"><a xlink:title=" ">
<path fill="none" stroke="#63b8ff" d="M62.19,-84.5C70.34,-84.5 79.25,-84.5 87.73,-84.5"/>
<polygon fill="#63b8ff" stroke="#63b8ff" points="87.78,-88 97.78,-84.5 87.78,-81 87.78,-88"/>
</a>
</g>
</g>
<!-- Node8 -->
<g id="Node000008" class="node">
<title>Node8</title>
<g id="a_Node000008"><a xlink:href="gpio__rpi5_8c.html#a4c01897c77fc1077daf91b31480ded50" target="_top" xlink:title="Write a 32&#45;bit value to a hardware register.">
<polygon fill="white" stroke="#666666" points="264.5,-19 202.5,-19 202.5,0 264.5,0 264.5,-19"/>
<text text-anchor="middle" x="233.5" y="-7" font-family="Helvetica,sans-Serif" font-size="10.00">reg_write</text>
</a>
</g>
</g>
<!-- Node1&#45;&gt;Node8 -->
<g id="edge13_Node000001_Node000008" class="edge">
<title>Node1&#45;&gt;Node8</title>
<g id="a_edge13_Node000001_Node000008"><a xlink:title=" ">
<path fill="none" stroke="#63b8ff" d="M49.9,-74.97C63,-68.2 81.33,-59.17 98,-52.5 129.18,-40.03 165.51,-28.59 192.54,-20.65"/>
<polygon fill="#63b8ff" stroke="#63b8ff" points="193.79,-23.93 202.42,-17.79 191.84,-17.21 193.79,-23.93"/>
</a>
</g>
</g>
<!-- Node4&#45;&gt;Node2 -->
<g id="edge4_Node000004_Node000002" class="edge">
<title>Node4&#45;&gt;Node2</title>
<g id="a_edge4_Node000004_Node000002"><a xlink:title=" ">
<path fill="none" stroke="#63b8ff" d="M142.57,-111.98C146.43,-109.39 150.47,-106.48 154,-103.5 171.79,-88.51 170.89,-78.76 190,-65.5 191.87,-64.2 193.85,-62.97 195.89,-61.8"/>
<polygon fill="#63b8ff" stroke="#63b8ff" points="197.76,-64.78 205.09,-57.14 194.59,-58.54 197.76,-64.78"/>
</a>
</g>
</g>
<!-- Node4&#45;&gt;Node3 -->
<g id="edge6_Node000004_Node000003" class="edge">
<title>Node4&#45;&gt;Node3</title>
<g id="a_edge6_Node000004_Node000003"><a xlink:title=" ">
<path fill="none" stroke="#63b8ff" d="M152.54,-130.46C165.52,-135.01 181.53,-140.62 195.81,-145.63"/>
<polygon fill="#63b8ff" stroke="#63b8ff" points="194.76,-148.97 205.35,-148.98 197.07,-142.37 194.76,-148.97"/>
</a>
</g>
</g>
<!-- Node5 -->
<g id="Node000005" class="node">
<title>Node5</title>
<g id="a_Node000005"><a xlink:href="gpio__rpi5__pinctrl_8c.html#ac29239721da816fdd910b09545678264" target="_top" xlink:title="Validate that a pin index is within any known GPIO range.">
<polygon fill="white" stroke="#666666" points="277,-94 190,-94 190,-75 277,-75 277,-94"/>
<text text-anchor="middle" x="233.5" y="-82" font-family="Helvetica,sans-Serif" font-size="10.00">gpio_valid_pin</text>
</a>
</g>
</g>
<!-- Node4&#45;&gt;Node5 -->
<g id="edge5_Node000004_Node000005" class="edge">
<title>Node4&#45;&gt;Node5</title>
<g id="a_edge5_Node000004_Node000005"><a xlink:title=" ">
<path fill="none" stroke="#63b8ff" d="M152.54,-112.54C165.52,-107.99 181.53,-102.38 195.81,-97.37"/>
<polygon fill="#63b8ff" stroke="#63b8ff" points="197.07,-100.63 205.35,-94.02 194.76,-94.03 197.07,-100.63"/>
</a>
</g>
</g>
<!-- Node6 -->
<g id="Node000006" class="node">
<title>Node6</title>
<g id="a_Node000006"><a xlink:href="gpio__rpi5_8c.html#a6ddca9e64247d9b8a877e9b70ec52bfe" target="_top" xlink:title="Read a 32&#45;bit hardware register.">
<polygon fill="white" stroke="#666666" points="263,-131 204,-131 204,-112 263,-112 263,-131"/>
<text text-anchor="middle" x="233.5" y="-119" font-family="Helvetica,sans-Serif" font-size="10.00">reg_read</text>
</a>
</g>
</g>
<!-- Node4&#45;&gt;Node6 -->
<g id="edge7_Node000004_Node000006" class="edge">
<title>Node4&#45;&gt;Node6</title>
<g id="a_edge7_Node000004_Node000006"><a xlink:title=" ">
<path fill="none" stroke="#63b8ff" d="M152.54,-121.5C164.88,-121.5 179.96,-121.5 193.69,-121.5"/>
<polygon fill="#63b8ff" stroke="#63b8ff" points="193.85,-125 203.85,-121.5 193.85,-118 193.85,-125"/>
</a>
</g>
</g>
<!-- Node7&#45;&gt;Node2 -->
<g id="edge9_Node000007_Node000002" class="edge">
<title>Node7&#45;&gt;Node2</title>
<g id="a_edge9_Node000007_Node000002"><a xlink:title=" ">
<path fill="none" stroke="#63b8ff" d="M154.17,-74.97C166.75,-70.56 181.88,-65.25 195.48,-60.48"/>
<polygon fill="#63b8ff" stroke="#63b8ff" points="196.78,-63.74 205.06,-57.12 194.46,-57.13 196.78,-63.74"/>
</a>
</g>
</g>
<!-- Node7&#45;&gt;Node3 -->
<g id="edge11_Node000007_Node000003" class="edge">
<title>Node7&#45;&gt;Node3</title>
<g id="a_edge11_Node000007_Node000003"><a xlink:title=" ">
<path fill="none" stroke="#63b8ff" d="M141.66,-94.08C145.77,-96.96 150.16,-100.23 154,-103.5 171.46,-118.39 171.06,-127.55 190,-140.5 191.88,-141.79 193.87,-143.01 195.92,-144.17"/>
<polygon fill="#63b8ff" stroke="#63b8ff" points="194.62,-147.43 205.13,-148.82 197.78,-141.19 194.62,-147.43"/>
</a>
</g>
</g>
<!-- Node7&#45;&gt;Node5 -->
<g id="edge10_Node000007_Node000005" class="edge">
<title>Node7&#45;&gt;Node5</title>
<g id="a_edge10_Node000007_Node000005"><a xlink:title=" ">
<path fill="none" stroke="#63b8ff" d="M154.17,-84.5C161.98,-84.5 170.78,-84.5 179.58,-84.5"/>
<polygon fill="#63b8ff" stroke="#63b8ff" points="179.86,-88 189.86,-84.5 179.86,-81 179.86,-88"/>
</a>
</g>
</g>
<!-- Node7&#45;&gt;Node8 -->
<g id="edge12_Node000007_Node000008" class="edge">
<title>Node7&#45;&gt;Node8</title>
<g id="a_edge12_Node000007_Node000008"><a xlink:title=" ">
<path fill="none" stroke="#63b8ff" d="M136.07,-74.78C147.69,-62.74 168.86,-42.16 190,-28.5 192.63,-26.8 195.44,-25.18 198.31,-23.65"/>
<polygon fill="#63b8ff" stroke="#63b8ff" points="200.12,-26.66 207.56,-19.12 197.04,-20.38 200.12,-26.66"/>
</a>
</g>
</g>
</g>
</svg>
</svg>

<style type='text/css'>
<![CDATA[
[data-mouse-over-selected='false'] { opacity: 0.7; }
[data-mouse-over-selected='true']  { opacity: 1.0; }
]]>
</style>
<script type="application/ecmascript"><![CDATA[
document.addEventListener('DOMContentLoaded', (event) => {
  highlightEdges();
  highlightAdjacentNodes();
});
]]></script>
</svg>
